<svg xmlns="http://www.w3.org/2000/svg" xmlns:xlink="http://www.w3.org/1999/xlink" width="1080" zoomAndPan="magnify" viewBox="0 0 810 809.999993" height="1080" preserveAspectRatio="xMidYMid meet" version="1.0"><defs><clipPath id="71ff0f7c1a"><path d="M 26.613281 65 L 783 65 L 783 745 L 26.613281 745 Z M 26.613281 65 " clip-rule="nonzero"/></clipPath></defs><path fill="#ffffff" d="M 560.597656 418.960938 C 559.722656 418.960938 558.859375 419.046875 558.003906 419.21875 C 557.152344 419.390625 556.320312 419.644531 555.515625 419.980469 C 554.710938 420.316406 553.949219 420.730469 553.226562 421.21875 C 552.503906 421.707031 551.835938 422.261719 551.222656 422.882812 C 550.613281 423.503906 550.066406 424.179688 549.589844 424.910156 C 549.113281 425.640625 548.710938 426.410156 548.386719 427.21875 C 548.0625 428.03125 547.820312 428.863281 547.664062 429.722656 C 547.503906 430.578125 547.429688 431.441406 547.445312 432.316406 L 547.445312 616.445312 C 547.386719 616.914062 547.351562 617.386719 547.34375 617.855469 C 547.335938 618.328125 547.355469 618.800781 547.394531 619.269531 C 547.4375 619.738281 547.503906 620.207031 547.59375 620.667969 C 547.6875 621.132812 547.800781 621.589844 547.941406 622.039062 C 548.082031 622.488281 548.242188 622.929688 548.429688 623.363281 C 548.617188 623.796875 548.824219 624.21875 549.054688 624.632812 C 549.289062 625.042969 549.539062 625.441406 549.8125 625.824219 C 550.085938 626.210938 550.378906 626.578125 550.691406 626.933594 C 551.003906 627.285156 551.335938 627.621094 551.683594 627.941406 C 552.03125 628.257812 552.394531 628.558594 552.773438 628.835938 C 553.152344 629.117188 553.546875 629.375 553.953125 629.613281 C 554.359375 629.851562 554.78125 630.070312 555.210938 630.261719 C 555.640625 630.457031 556.078125 630.628906 556.527344 630.773438 C 556.976562 630.921875 557.429688 631.046875 557.890625 631.144531 C 558.351562 631.242188 558.816406 631.316406 559.285156 631.367188 C 559.753906 631.417969 560.226562 631.441406 560.699219 631.441406 C 561.167969 631.441406 561.640625 631.417969 562.109375 631.367188 C 562.578125 631.316406 563.042969 631.242188 563.503906 631.144531 C 563.964844 631.046875 564.421875 630.921875 564.867188 630.773438 C 565.316406 630.628906 565.757812 630.457031 566.1875 630.261719 C 566.617188 630.070312 567.035156 629.851562 567.441406 629.613281 C 567.847656 629.375 568.242188 629.117188 568.621094 628.835938 C 569 628.558594 569.367188 628.257812 569.714844 627.941406 C 570.0625 627.621094 570.390625 627.285156 570.703125 626.933594 C 571.015625 626.578125 571.308594 626.210938 571.582031 625.824219 C 571.855469 625.441406 572.109375 625.042969 572.339844 624.632812 C 572.570312 624.21875 572.78125 623.796875 572.964844 623.363281 C 573.152344 622.929688 573.316406 622.488281 573.453125 622.039062 C 573.59375 621.589844 573.710938 621.132812 573.800781 620.667969 C 573.890625 620.207031 573.957031 619.738281 574 619.269531 C 574.042969 618.800781 574.058594 618.328125 574.050781 617.855469 C 574.042969 617.386719 574.007812 616.914062 573.953125 616.445312 L 573.953125 432.316406 C 573.964844 431.433594 573.890625 430.5625 573.730469 429.695312 C 573.566406 428.828125 573.320312 427.988281 572.992188 427.171875 C 572.660156 426.355469 572.25 425.582031 571.765625 424.847656 C 571.277344 424.113281 570.722656 423.433594 570.101562 422.8125 C 569.476562 422.1875 568.800781 421.632812 568.066406 421.148438 C 567.332031 420.660156 566.554688 420.253906 565.738281 419.921875 C 564.921875 419.589844 564.082031 419.34375 563.214844 419.183594 C 562.351562 419.019531 561.476562 418.945312 560.597656 418.960938 Z M 560.597656 418.960938 " fill-opacity="1" fill-rule="nonzero"/><g clip-path="url(#71ff0f7c1a)"><path fill="#ffffff" d="M 726.316406 65.0625 L 185.25 65.0625 C 183.398438 65.0625 181.550781 65.152344 179.703125 65.335938 C 177.859375 65.519531 176.03125 65.789062 174.210938 66.152344 C 172.394531 66.515625 170.601562 66.964844 168.828125 67.503906 C 167.054688 68.042969 165.3125 68.667969 163.601562 69.378906 C 161.890625 70.089844 160.214844 70.882812 158.582031 71.757812 C 156.949219 72.632812 155.363281 73.585938 153.824219 74.621094 C 152.285156 75.652344 150.800781 76.757812 149.367188 77.933594 C 147.9375 79.113281 146.570312 80.355469 145.261719 81.667969 C 143.953125 82.980469 142.710938 84.355469 141.539062 85.792969 C 140.367188 87.226562 139.265625 88.714844 138.242188 90.257812 C 137.214844 91.800781 136.265625 93.390625 135.398438 95.027344 C 134.527344 96.664062 133.742188 98.339844 133.035156 100.054688 C 132.332031 101.765625 131.714844 103.511719 131.179688 105.285156 C 130.648438 107.0625 130.203125 108.859375 129.847656 110.675781 C 129.492188 112.496094 129.226562 114.328125 129.050781 116.171875 C 128.875 118.015625 128.789062 119.867188 128.796875 121.71875 L 128.796875 221.273438 L 83.269531 221.273438 C 81.414062 221.273438 79.5625 221.363281 77.71875 221.542969 C 75.871094 221.726562 74.039062 222 72.21875 222.359375 C 70.398438 222.722656 68.601562 223.171875 66.824219 223.710938 C 65.046875 224.25 63.304688 224.875 61.589844 225.585938 C 59.875 226.292969 58.199219 227.085938 56.5625 227.960938 C 54.925781 228.835938 53.335938 229.789062 51.792969 230.820312 C 50.25 231.851562 48.761719 232.953125 47.328125 234.132812 C 45.894531 235.308594 44.519531 236.554688 43.207031 237.867188 C 41.894531 239.179688 40.652344 240.550781 39.476562 241.984375 C 38.296875 243.421875 37.195312 244.910156 36.164062 246.453125 C 35.132812 247.996094 34.179688 249.582031 33.304688 251.21875 C 32.429688 252.855469 31.636719 254.53125 30.925781 256.246094 C 30.21875 257.960938 29.59375 259.707031 29.054688 261.480469 C 28.515625 263.257812 28.066406 265.054688 27.703125 266.875 C 27.339844 268.695312 27.070312 270.527344 26.886719 272.375 C 26.707031 274.222656 26.613281 276.074219 26.613281 277.929688 L 26.613281 688.480469 C 26.613281 690.335938 26.707031 692.183594 26.886719 694.027344 C 27.070312 695.871094 27.339844 697.703125 27.703125 699.519531 C 28.066406 701.335938 28.515625 703.132812 29.054688 704.90625 C 29.59375 706.679688 30.21875 708.421875 30.929688 710.132812 C 31.640625 711.84375 32.433594 713.515625 33.308594 715.148438 C 34.183594 716.78125 35.140625 718.367188 36.171875 719.910156 C 37.203125 721.449219 38.308594 722.933594 39.484375 724.363281 C 40.664062 725.792969 41.90625 727.164062 43.222656 728.472656 C 44.535156 729.78125 45.90625 731.019531 47.34375 732.191406 C 48.777344 733.367188 50.265625 734.464844 51.808594 735.492188 C 53.351562 736.515625 54.941406 737.464844 56.578125 738.335938 C 58.214844 739.203125 59.890625 739.992188 61.605469 740.695312 C 63.316406 741.398438 65.0625 742.019531 66.835938 742.550781 C 68.613281 743.085938 70.410156 743.527344 72.226562 743.882812 C 74.046875 744.242188 75.878906 744.507812 77.722656 744.679688 C 79.566406 744.855469 81.417969 744.941406 83.269531 744.933594 L 624.335938 744.933594 C 626.183594 744.933594 628.027344 744.84375 629.867188 744.664062 C 631.707031 744.480469 633.535156 744.210938 635.347656 743.851562 C 637.160156 743.488281 638.953125 743.039062 640.722656 742.503906 C 642.492188 741.96875 644.230469 741.34375 645.9375 740.636719 C 647.648438 739.929688 649.316406 739.140625 650.945312 738.269531 C 652.578125 737.398438 654.160156 736.449219 655.699219 735.421875 C 657.234375 734.394531 658.71875 733.292969 660.148438 732.121094 C 661.578125 730.949219 662.945312 729.707031 664.253906 728.398438 C 665.5625 727.09375 666.800781 725.722656 667.972656 724.292969 C 669.148438 722.867188 670.246094 721.382812 671.273438 719.84375 C 672.300781 718.308594 673.25 716.722656 674.121094 715.09375 C 674.992188 713.460938 675.785156 711.792969 676.492188 710.085938 C 677.199219 708.375 677.820312 706.636719 678.359375 704.867188 C 678.894531 703.097656 679.34375 701.308594 679.703125 699.496094 C 680.0625 697.679688 680.335938 695.855469 680.515625 694.015625 C 680.699219 692.175781 680.789062 690.328125 680.789062 688.480469 L 680.789062 588.726562 L 726.316406 588.726562 C 728.171875 588.726562 730.023438 588.636719 731.867188 588.453125 C 733.714844 588.269531 735.546875 588 737.367188 587.636719 C 739.1875 587.277344 740.984375 586.824219 742.761719 586.285156 C 744.539062 585.746094 746.28125 585.125 747.996094 584.414062 C 749.710938 583.703125 751.386719 582.910156 753.023438 582.035156 C 754.660156 581.160156 756.25 580.207031 757.792969 579.179688 C 759.335938 578.148438 760.824219 577.042969 762.257812 575.867188 C 763.691406 574.6875 765.066406 573.445312 766.378906 572.132812 C 767.6875 570.820312 768.933594 569.445312 770.109375 568.011719 C 771.289062 566.578125 772.390625 565.089844 773.421875 563.546875 C 774.453125 562.003906 775.40625 560.414062 776.28125 558.777344 C 777.15625 557.140625 777.949219 555.464844 778.660156 553.75 C 779.367188 552.039062 779.992188 550.292969 780.53125 548.515625 C 781.070312 546.742188 781.519531 544.941406 781.882812 543.125 C 782.246094 541.304688 782.515625 539.46875 782.699219 537.625 C 782.878906 535.777344 782.972656 533.925781 782.972656 532.070312 L 782.972656 121.71875 C 782.972656 119.863281 782.878906 118.011719 782.699219 116.164062 C 782.515625 114.320312 782.246094 112.484375 781.882812 110.667969 C 781.519531 108.847656 781.070312 107.046875 780.53125 105.273438 C 779.992188 103.496094 779.367188 101.753906 778.660156 100.039062 C 777.949219 98.324219 777.15625 96.648438 776.28125 95.011719 C 775.40625 93.375 774.453125 91.785156 773.421875 90.242188 C 772.390625 88.699219 771.289062 87.210938 770.109375 85.777344 C 768.933594 84.34375 767.6875 82.96875 766.378906 81.65625 C 765.066406 80.34375 763.691406 79.101562 762.257812 77.921875 C 760.824219 76.746094 759.335938 75.640625 757.792969 74.613281 C 756.25 73.582031 754.660156 72.628906 753.023438 71.753906 C 751.386719 70.878906 749.710938 70.085938 747.996094 69.375 C 746.28125 68.664062 744.539062 68.042969 742.761719 67.503906 C 740.984375 66.964844 739.1875 66.515625 737.367188 66.152344 C 735.546875 65.789062 733.714844 65.519531 731.867188 65.335938 C 730.023438 65.152344 728.171875 65.0625 726.316406 65.0625 Z M 625.144531 718.429688 L 83.269531 718.429688 C 82.289062 718.429688 81.3125 718.378906 80.335938 718.285156 C 79.359375 718.1875 78.390625 718.042969 77.429688 717.851562 C 76.464844 717.660156 75.515625 717.421875 74.578125 717.136719 C 73.640625 716.855469 72.714844 716.523438 71.808594 716.148438 C 70.902344 715.773438 70.019531 715.355469 69.152344 714.890625 C 68.289062 714.429688 67.449219 713.925781 66.632812 713.378906 C 65.816406 712.835938 65.03125 712.253906 64.273438 711.628906 C 63.515625 711.007812 62.789062 710.351562 62.09375 709.65625 C 61.402344 708.964844 60.742188 708.238281 60.121094 707.480469 C 59.5 706.722656 58.914062 705.933594 58.371094 705.117188 C 57.824219 704.304688 57.320312 703.464844 56.859375 702.597656 C 56.398438 701.734375 55.976562 700.847656 55.601562 699.941406 C 55.226562 699.035156 54.898438 698.113281 54.613281 697.175781 C 54.328125 696.234375 54.089844 695.285156 53.898438 694.324219 C 53.707031 693.363281 53.5625 692.390625 53.46875 691.417969 C 53.371094 690.441406 53.324219 689.460938 53.324219 688.480469 L 53.324219 277.929688 C 53.296875 276.929688 53.320312 275.933594 53.390625 274.9375 C 53.464844 273.941406 53.585938 272.953125 53.757812 271.972656 C 53.929688 270.988281 54.148438 270.015625 54.417969 269.054688 C 54.6875 268.09375 55.003906 267.148438 55.367188 266.21875 C 55.730469 265.289062 56.136719 264.378906 56.59375 263.492188 C 57.046875 262.601562 57.542969 261.738281 58.085938 260.902344 C 58.625 260.0625 59.207031 259.25 59.828125 258.472656 C 60.449219 257.691406 61.105469 256.941406 61.804688 256.226562 C 62.5 255.511719 63.230469 254.832031 63.992188 254.191406 C 64.757812 253.550781 65.550781 252.949219 66.375 252.382812 C 67.199219 251.820312 68.050781 251.300781 68.925781 250.824219 C 69.804688 250.347656 70.699219 249.914062 71.621094 249.527344 C 72.539062 249.136719 73.476562 248.796875 74.429688 248.503906 C 75.382812 248.207031 76.347656 247.960938 77.328125 247.765625 C 78.304688 247.566406 79.289062 247.417969 80.285156 247.320312 C 81.277344 247.222656 82.273438 247.171875 83.269531 247.171875 L 624.335938 247.171875 C 625.324219 247.183594 626.3125 247.246094 627.292969 247.355469 C 628.277344 247.46875 629.253906 247.628906 630.21875 247.835938 C 631.1875 248.042969 632.140625 248.296875 633.085938 248.597656 C 634.027344 248.902344 634.953125 249.25 635.859375 249.644531 C 636.769531 250.035156 637.652344 250.476562 638.519531 250.957031 C 639.382812 251.4375 640.222656 251.960938 641.035156 252.527344 C 641.847656 253.089844 642.628906 253.695312 643.382812 254.335938 C 644.132812 254.980469 644.851562 255.65625 645.539062 256.371094 C 646.222656 257.085938 646.871094 257.832031 647.484375 258.609375 C 648.09375 259.386719 648.667969 260.191406 649.199219 261.027344 C 649.730469 261.863281 650.21875 262.71875 650.664062 263.601562 C 651.113281 264.488281 651.515625 265.390625 651.871094 266.3125 C 652.226562 267.234375 652.539062 268.171875 652.800781 269.128906 C 653.066406 270.082031 653.28125 271.046875 653.449219 272.019531 C 653.621094 272.996094 653.738281 273.976562 653.808594 274.964844 C 653.882812 275.949219 653.902344 276.9375 653.875 277.929688 L 653.875 286.425781 L 294.71875 286.425781 C 292.964844 286.390625 291.28125 286.703125 289.660156 287.375 C 288.042969 288.042969 286.625 289.007812 285.410156 290.269531 L 265.175781 310.503906 L 143.769531 310.503906 C 142.894531 310.503906 142.027344 310.589844 141.164062 310.761719 C 140.304688 310.933594 139.46875 311.1875 138.660156 311.523438 C 137.851562 311.855469 137.082031 312.269531 136.351562 312.753906 C 135.621094 313.242188 134.949219 313.796875 134.328125 314.417969 C 133.707031 315.035156 133.152344 315.710938 132.667969 316.441406 C 132.179688 317.167969 131.769531 317.9375 131.433594 318.75 C 131.097656 319.558594 130.84375 320.394531 130.671875 321.253906 C 130.5 322.113281 130.417969 322.984375 130.417969 323.859375 C 130.417969 324.738281 130.5 325.605469 130.671875 326.464844 C 130.84375 327.324219 131.097656 328.160156 131.433594 328.96875 C 131.769531 329.78125 132.179688 330.550781 132.667969 331.277344 C 133.152344 332.007812 133.707031 332.683594 134.328125 333.300781 C 134.949219 333.921875 135.621094 334.476562 136.351562 334.964844 C 137.082031 335.449219 137.851562 335.863281 138.660156 336.199219 C 139.46875 336.53125 140.304688 336.785156 141.164062 336.957031 C 142.027344 337.128906 142.894531 337.214844 143.769531 337.214844 L 269.425781 337.214844 C 271.167969 337.207031 272.84375 336.867188 274.457031 336.203125 C 276.066406 335.539062 277.492188 334.59375 278.734375 333.371094 L 298.96875 313.136719 L 653.875 313.136719 L 653.875 688.480469 C 653.871094 689.453125 653.816406 690.417969 653.71875 691.386719 C 653.617188 692.351562 653.472656 693.308594 653.277344 694.261719 C 653.085938 695.210938 652.847656 696.152344 652.566406 697.082031 C 652.28125 698.007812 651.957031 698.921875 651.585938 699.816406 C 651.210938 700.714844 650.800781 701.59375 650.34375 702.449219 C 649.886719 703.304688 649.390625 704.136719 648.855469 704.949219 C 648.316406 705.757812 647.742188 706.539062 647.132812 707.292969 C 646.519531 708.042969 645.875 708.765625 645.191406 709.457031 C 644.507812 710.148438 643.796875 710.804688 643.050781 711.425781 C 642.304688 712.050781 641.53125 712.632812 640.730469 713.183594 C 639.929688 713.730469 639.105469 714.238281 638.253906 714.703125 C 637.402344 715.171875 636.53125 715.597656 635.640625 715.980469 C 634.746094 716.363281 633.839844 716.703125 632.914062 717 C 631.992188 717.296875 631.054688 717.546875 630.105469 717.75 C 629.15625 717.957031 628.199219 718.117188 627.238281 718.230469 C 626.273438 718.34375 625.304688 718.410156 624.335938 718.429688 Z M 756.261719 130.015625 L 396.902344 130.015625 C 395.136719 130.015625 393.445312 130.367188 391.828125 131.074219 C 390.210938 131.777344 388.796875 132.773438 387.59375 134.0625 L 367.359375 154.296875 L 245.953125 154.296875 C 245.078125 154.296875 244.207031 154.382812 243.347656 154.554688 C 242.488281 154.722656 241.652344 154.976562 240.84375 155.3125 C 240.03125 155.648438 239.261719 156.058594 238.535156 156.546875 C 237.804688 157.035156 237.128906 157.585938 236.511719 158.207031 C 235.890625 158.828125 235.335938 159.503906 234.851562 160.230469 C 234.363281 160.960938 233.953125 161.730469 233.617188 162.539062 C 233.28125 163.351562 233.027344 164.1875 232.855469 165.046875 C 232.683594 165.90625 232.597656 166.773438 232.597656 167.652344 C 232.597656 168.527344 232.683594 169.394531 232.855469 170.257812 C 233.027344 171.117188 233.28125 171.953125 233.617188 172.761719 C 233.953125 173.570312 234.363281 174.339844 234.851562 175.070312 C 235.335938 175.800781 235.890625 176.472656 236.511719 177.09375 C 237.128906 177.714844 237.804688 178.269531 238.535156 178.753906 C 239.261719 179.242188 240.03125 179.652344 240.84375 179.988281 C 241.652344 180.324219 242.488281 180.578125 243.347656 180.75 C 244.207031 180.921875 245.078125 181.003906 245.953125 181.003906 L 373.632812 181.003906 C 375.40625 181.011719 377.117188 180.683594 378.765625 180.019531 C 380.410156 179.351562 381.871094 178.398438 383.140625 177.160156 L 403.375 156.925781 L 756.261719 156.925781 L 756.261719 532.070312 C 756.261719 533.054688 756.214844 534.035156 756.117188 535.011719 C 756.023438 535.992188 755.878906 536.960938 755.6875 537.925781 C 755.496094 538.890625 755.257812 539.84375 754.976562 540.785156 C 754.691406 541.726562 754.363281 542.652344 753.988281 543.5625 C 753.613281 544.46875 753.195312 545.359375 752.730469 546.226562 C 752.269531 547.09375 751.765625 547.9375 751.222656 548.757812 C 750.679688 549.574219 750.097656 550.367188 749.476562 551.128906 C 748.851562 551.890625 748.195312 552.621094 747.503906 553.316406 C 746.808594 554.015625 746.085938 554.675781 745.328125 555.304688 C 744.570312 555.929688 743.785156 556.519531 742.96875 557.066406 C 742.152344 557.617188 741.3125 558.125 740.449219 558.59375 C 739.582031 559.0625 738.699219 559.484375 737.789062 559.867188 C 736.882812 560.246094 735.960938 560.582031 735.023438 560.875 C 734.082031 561.164062 733.132812 561.40625 732.167969 561.605469 C 731.207031 561.804688 730.234375 561.953125 729.257812 562.054688 C 728.277344 562.15625 727.296875 562.210938 726.316406 562.21875 L 680.789062 562.21875 L 680.789062 278.941406 C 680.789062 277.089844 680.699219 275.242188 680.515625 273.398438 C 680.335938 271.554688 680.066406 269.726562 679.703125 267.910156 C 679.34375 266.09375 678.894531 264.300781 678.359375 262.53125 C 677.824219 260.757812 677.203125 259.015625 676.496094 257.304688 C 675.789062 255.59375 675 253.921875 674.128906 252.289062 C 673.257812 250.652344 672.308594 249.066406 671.28125 247.527344 C 670.257812 245.984375 669.15625 244.5 667.984375 243.066406 C 666.8125 241.632812 665.574219 240.261719 664.265625 238.949219 C 662.960938 237.636719 661.589844 236.394531 660.164062 235.214844 C 658.734375 234.039062 657.25 232.933594 655.714844 231.902344 C 654.175781 230.871094 652.59375 229.914062 650.960938 229.039062 C 649.332031 228.160156 647.664062 227.367188 645.953125 226.652344 C 644.246094 225.941406 642.507812 225.3125 640.734375 224.769531 C 638.964844 224.226562 637.171875 223.773438 635.359375 223.40625 C 633.542969 223.039062 631.714844 222.761719 629.875 222.574219 C 628.03125 222.386719 626.1875 222.289062 624.335938 222.285156 L 155.304688 222.285156 L 155.304688 121.71875 C 155.304688 120.738281 155.351562 119.761719 155.449219 118.785156 C 155.542969 117.808594 155.6875 116.839844 155.878906 115.875 C 156.070312 114.914062 156.308594 113.964844 156.59375 113.027344 C 156.878906 112.085938 157.207031 111.164062 157.582031 110.257812 C 157.960938 109.351562 158.378906 108.46875 158.839844 107.601562 C 159.304688 106.738281 159.804688 105.898438 160.351562 105.082031 C 160.894531 104.265625 161.480469 103.480469 162.101562 102.722656 C 162.722656 101.964844 163.382812 101.238281 164.074219 100.542969 C 164.769531 99.851562 165.496094 99.191406 166.253906 98.570312 C 167.011719 97.949219 167.796875 97.363281 168.613281 96.820312 C 169.429688 96.273438 170.269531 95.769531 171.132812 95.308594 C 172 94.847656 172.886719 94.425781 173.789062 94.050781 C 174.695312 93.675781 175.621094 93.347656 176.558594 93.0625 C 177.496094 92.777344 178.445312 92.539062 179.410156 92.347656 C 180.371094 92.15625 181.339844 92.011719 182.316406 91.917969 C 183.292969 91.820312 184.269531 91.773438 185.25 91.773438 L 726.316406 91.773438 C 727.296875 91.773438 728.273438 91.820312 729.25 91.917969 C 730.226562 92.011719 731.195312 92.15625 732.15625 92.347656 C 733.121094 92.539062 734.070312 92.777344 735.007812 93.0625 C 735.945312 93.347656 736.871094 93.675781 737.777344 94.050781 C 738.683594 94.425781 739.566406 94.847656 740.433594 95.308594 C 741.296875 95.769531 742.136719 96.273438 742.953125 96.820312 C 743.769531 97.363281 744.554688 97.949219 745.3125 98.570312 C 746.070312 99.191406 746.796875 99.851562 747.492188 100.542969 C 748.183594 101.238281 748.84375 101.964844 749.464844 102.722656 C 750.085938 103.480469 750.671875 104.265625 751.214844 105.082031 C 751.761719 105.898438 752.261719 106.738281 752.726562 107.601562 C 753.1875 108.46875 753.605469 109.351562 753.984375 110.257812 C 754.359375 111.164062 754.6875 112.085938 754.972656 113.027344 C 755.257812 113.964844 755.496094 114.914062 755.6875 115.875 C 755.878906 116.839844 756.023438 117.808594 756.117188 118.785156 C 756.214844 119.761719 756.261719 120.738281 756.261719 121.71875 Z M 756.261719 130.015625 " fill-opacity="1" fill-rule="nonzero"/></g><path fill="#ffffff" d="M 499.285156 418.960938 L 367.359375 418.960938 C 366.488281 418.960938 365.625 419.046875 364.769531 419.21875 C 363.914062 419.390625 363.082031 419.644531 362.277344 419.980469 C 361.476562 420.316406 360.710938 420.730469 359.988281 421.21875 C 359.265625 421.707031 358.597656 422.261719 357.988281 422.882812 C 357.375 423.503906 356.832031 424.179688 356.351562 424.910156 C 355.875 425.640625 355.472656 426.410156 355.148438 427.21875 C 354.824219 428.03125 354.582031 428.863281 354.425781 429.722656 C 354.265625 430.578125 354.195312 431.441406 354.207031 432.316406 L 354.207031 616.445312 C 354.148438 616.914062 354.117188 617.386719 354.109375 617.855469 C 354.101562 618.328125 354.117188 618.800781 354.160156 619.269531 C 354.199219 619.738281 354.265625 620.207031 354.359375 620.667969 C 354.449219 621.132812 354.5625 621.589844 354.703125 622.039062 C 354.84375 622.488281 355.007812 622.929688 355.191406 623.363281 C 355.378906 623.796875 355.585938 624.21875 355.820312 624.632812 C 356.050781 625.042969 356.300781 625.441406 356.574219 625.824219 C 356.847656 626.210938 357.140625 626.578125 357.453125 626.933594 C 357.765625 627.285156 358.097656 627.621094 358.445312 627.941406 C 358.792969 628.257812 359.15625 628.558594 359.535156 628.835938 C 359.917969 629.117188 360.308594 629.375 360.71875 629.613281 C 361.125 629.851562 361.542969 630.070312 361.972656 630.261719 C 362.402344 630.457031 362.84375 630.628906 363.289062 630.773438 C 363.738281 630.921875 364.191406 631.046875 364.652344 631.144531 C 365.113281 631.242188 365.582031 631.316406 366.050781 631.367188 C 366.519531 631.417969 366.988281 631.441406 367.460938 631.441406 C 367.933594 631.441406 368.402344 631.417969 368.871094 631.367188 C 369.339844 631.316406 369.804688 631.242188 370.265625 631.144531 C 370.730469 631.046875 371.183594 630.921875 371.632812 630.773438 C 372.078125 630.628906 372.519531 630.457031 372.949219 630.261719 C 373.378906 630.070312 373.796875 629.851562 374.203125 629.613281 C 374.613281 629.375 375.003906 629.117188 375.386719 628.835938 C 375.765625 628.558594 376.128906 628.257812 376.476562 627.941406 C 376.824219 627.621094 377.15625 627.285156 377.46875 626.933594 C 377.78125 626.578125 378.074219 626.210938 378.34375 625.824219 C 378.617188 625.441406 378.871094 625.042969 379.101562 624.632812 C 379.332031 624.21875 379.542969 623.796875 379.730469 623.363281 C 379.914062 622.929688 380.078125 622.488281 380.21875 622.039062 C 380.355469 621.589844 380.472656 621.132812 380.5625 620.667969 C 380.65625 620.207031 380.722656 619.738281 380.761719 619.269531 C 380.804688 618.800781 380.820312 618.328125 380.8125 617.855469 C 380.804688 617.386719 380.773438 616.914062 380.714844 616.445312 L 380.714844 537.734375 L 499.285156 537.734375 C 500.144531 537.699219 500.988281 537.578125 501.820312 537.378906 C 502.65625 537.183594 503.460938 536.90625 504.242188 536.554688 C 505.023438 536.203125 505.765625 535.78125 506.46875 535.289062 C 507.167969 534.796875 507.816406 534.246094 508.414062 533.628906 C 509.011719 533.015625 509.542969 532.347656 510.015625 531.632812 C 510.484375 530.917969 510.882812 530.164062 511.210938 529.371094 C 511.539062 528.578125 511.789062 527.765625 511.960938 526.925781 C 512.132812 526.085938 512.226562 525.238281 512.238281 524.382812 L 512.238281 432.316406 C 512.238281 431.457031 512.15625 430.601562 511.992188 429.757812 C 511.828125 428.914062 511.582031 428.09375 511.261719 427.296875 C 510.9375 426.5 510.542969 425.738281 510.070312 425.019531 C 509.601562 424.300781 509.066406 423.628906 508.46875 423.011719 C 507.871094 422.394531 507.21875 421.839844 506.511719 421.347656 C 505.808594 420.859375 505.058594 420.4375 504.273438 420.089844 C 503.488281 419.742188 502.671875 419.476562 501.835938 419.285156 C 500.996094 419.09375 500.148438 418.988281 499.285156 418.960938 Z M 380.714844 445.46875 L 485.933594 445.46875 L 485.933594 510.21875 L 380.714844 510.21875 Z M 380.714844 445.46875 " fill-opacity="1" fill-rule="nonzero"/><path fill="#ffffff" d="M 252.632812 427.660156 C 252.398438 427.023438 252.117188 426.402344 251.789062 425.808594 C 251.460938 425.210938 251.089844 424.644531 250.675781 424.101562 C 250.261719 423.5625 249.808594 423.058594 249.316406 422.589844 C 248.824219 422.117188 248.296875 421.6875 247.742188 421.296875 C 247.183594 420.90625 246.597656 420.5625 245.988281 420.261719 C 245.378906 419.960938 244.75 419.707031 244.097656 419.503906 C 243.449219 419.296875 242.789062 419.144531 242.117188 419.039062 C 241.441406 418.9375 240.765625 418.886719 240.085938 418.886719 C 239.40625 418.886719 238.730469 418.9375 238.054688 419.039062 C 237.382812 419.144531 236.722656 419.296875 236.074219 419.503906 C 235.421875 419.707031 234.792969 419.960938 234.183594 420.261719 C 233.574219 420.5625 232.988281 420.90625 232.429688 421.296875 C 231.875 421.6875 231.347656 422.117188 230.855469 422.589844 C 230.363281 423.058594 229.910156 423.5625 229.496094 424.101562 C 229.082031 424.644531 228.710938 425.210938 228.382812 425.808594 C 228.054688 426.402344 227.773438 427.023438 227.539062 427.660156 L 161.578125 611.386719 C 161.289062 612.210938 161.082031 613.054688 160.957031 613.921875 C 160.832031 614.785156 160.792969 615.652344 160.839844 616.527344 C 160.886719 617.398438 161.019531 618.257812 161.234375 619.101562 C 161.449219 619.949219 161.746094 620.765625 162.121094 621.554688 C 162.496094 622.34375 162.945312 623.089844 163.464844 623.789062 C 163.988281 624.488281 164.570312 625.132812 165.21875 625.71875 C 165.867188 626.304688 166.566406 626.820312 167.3125 627.269531 C 168.0625 627.71875 168.847656 628.089844 169.671875 628.386719 C 171.15625 628.660156 172.636719 628.660156 174.121094 628.386719 C 174.808594 628.390625 175.492188 628.34375 176.167969 628.242188 C 176.847656 628.140625 177.515625 627.984375 178.167969 627.777344 C 178.824219 627.574219 179.457031 627.316406 180.070312 627.011719 C 180.6875 626.707031 181.273438 626.355469 181.832031 625.960938 C 182.390625 625.5625 182.917969 625.125 183.40625 624.644531 C 183.898438 624.164062 184.347656 623.652344 184.757812 623.101562 C 185.171875 622.550781 185.535156 621.972656 185.855469 621.367188 C 186.175781 620.757812 186.445312 620.132812 186.667969 619.480469 L 204.472656 570.921875 L 275.699219 570.921875 L 293.503906 620.492188 C 293.726562 621.144531 293.996094 621.769531 294.316406 622.378906 C 294.636719 622.984375 295 623.5625 295.414062 624.113281 C 295.824219 624.664062 296.273438 625.175781 296.765625 625.65625 C 297.253906 626.136719 297.78125 626.574219 298.339844 626.972656 C 298.898438 627.367188 299.484375 627.71875 300.101562 628.023438 C 300.714844 628.328125 301.347656 628.585938 302.003906 628.789062 C 302.65625 628.996094 303.324219 629.152344 304.003906 629.253906 C 304.679688 629.355469 305.363281 629.402344 306.050781 629.398438 C 307.535156 629.589844 309.015625 629.589844 310.5 629.398438 C 311.324219 629.101562 312.109375 628.730469 312.859375 628.28125 C 313.605469 627.832031 314.304688 627.316406 314.953125 626.730469 C 315.601562 626.144531 316.183594 625.5 316.707031 624.800781 C 317.226562 624.101562 317.675781 623.355469 318.050781 622.566406 C 318.425781 621.777344 318.722656 620.960938 318.9375 620.113281 C 319.152344 619.269531 319.285156 618.410156 319.332031 617.539062 C 319.378906 616.664062 319.339844 615.796875 319.214844 614.933594 C 319.089844 614.070312 318.882812 613.222656 318.59375 612.398438 Z M 266.1875 544.617188 L 213.984375 544.617188 L 240.085938 471.773438 Z M 266.1875 544.617188 " fill-opacity="1" fill-rule="nonzero"/></svg>