<svg xmlns="http://www.w3.org/2000/svg" xmlns:xlink="http://www.w3.org/1999/xlink" width="1080" zoomAndPan="magnify" viewBox="0 0 810 809.999993" height="1080" preserveAspectRatio="xMidYMid meet" version="1.0"><defs><clipPath id="9374664ad0"><path d="M 52 33.078125 L 98 33.078125 L 98 60 L 52 60 Z M 52 33.078125 " clip-rule="nonzero"/></clipPath><clipPath id="b384f1fafb"><path d="M 658 266 L 786.863281 266 L 786.863281 292 L 658 292 Z M 658 266 " clip-rule="nonzero"/></clipPath><clipPath id="01518857f0"><path d="M 31 163 L 786.863281 163 L 786.863281 777 L 31 777 Z M 31 163 " clip-rule="nonzero"/></clipPath><clipPath id="eef9ac2415"><path d="M 365 33.078125 L 428 33.078125 L 428 60 L 365 60 Z M 365 33.078125 " clip-rule="nonzero"/></clipPath><clipPath id="c179d096d9"><path d="M 255 33.078125 L 318 33.078125 L 318 60 L 255 60 Z M 255 33.078125 " clip-rule="nonzero"/></clipPath><clipPath id="9cd64d25ef"><path d="M 145 33.078125 L 208 33.078125 L 208 60 L 145 60 Z M 145 33.078125 " clip-rule="nonzero"/></clipPath><clipPath id="671bf83835"><path d="M 298 111 L 786.863281 111 L 786.863281 137 L 298 137 Z M 298 111 " clip-rule="nonzero"/></clipPath><clipPath id="3e0a471188"><path d="M 475 33.078125 L 538 33.078125 L 538 60 L 475 60 Z M 475 33.078125 " clip-rule="nonzero"/></clipPath><clipPath id="1091a4488f"><path d="M 585 33.078125 L 786 33.078125 L 786 60 L 585 60 Z M 585 33.078125 " clip-rule="nonzero"/></clipPath></defs><path fill="#ffffff" d="M 128.191406 291.75 L 149.617188 291.75 C 150.058594 291.804688 150.503906 291.835938 150.949219 291.84375 C 151.394531 291.851562 151.839844 291.832031 152.285156 291.792969 C 152.730469 291.753906 153.167969 291.691406 153.605469 291.605469 C 154.046875 291.519531 154.476562 291.410156 154.902344 291.277344 C 155.328125 291.148438 155.746094 290.992188 156.15625 290.816406 C 156.566406 290.640625 156.964844 290.441406 157.355469 290.222656 C 157.742188 290.007812 158.117188 289.765625 158.484375 289.507812 C 158.847656 289.25 159.195312 288.972656 159.527344 288.679688 C 159.863281 288.382812 160.179688 288.070312 160.480469 287.742188 C 160.78125 287.414062 161.066406 287.070312 161.332031 286.710938 C 161.59375 286.351562 161.839844 285.980469 162.066406 285.59375 C 162.289062 285.210938 162.496094 284.8125 162.679688 284.40625 C 162.859375 284 163.023438 283.585938 163.160156 283.160156 C 163.300781 282.738281 163.417969 282.308594 163.511719 281.871094 C 163.605469 281.4375 163.675781 280.996094 163.722656 280.550781 C 163.769531 280.109375 163.792969 279.664062 163.792969 279.21875 C 163.792969 278.773438 163.769531 278.328125 163.722656 277.882812 C 163.675781 277.441406 163.605469 277 163.511719 276.566406 C 163.417969 276.128906 163.300781 275.699219 163.160156 275.277344 C 163.023438 274.851562 162.859375 274.4375 162.679688 274.03125 C 162.496094 273.625 162.289062 273.226562 162.066406 272.84375 C 161.839844 272.457031 161.59375 272.085938 161.332031 271.726562 C 161.066406 271.367188 160.78125 271.023438 160.480469 270.695312 C 160.179688 270.367188 159.863281 270.054688 159.527344 269.757812 C 159.195312 269.464844 158.847656 269.1875 158.484375 268.925781 C 158.117188 268.667969 157.742188 268.429688 157.355469 268.210938 C 156.964844 267.992188 156.566406 267.796875 156.15625 267.621094 C 155.746094 267.445312 155.328125 267.289062 154.902344 267.15625 C 154.476562 267.027344 154.046875 266.917969 153.605469 266.832031 C 153.167969 266.746094 152.730469 266.683594 152.285156 266.640625 C 151.839844 266.601562 151.394531 266.585938 150.949219 266.59375 C 150.503906 266.601562 150.058594 266.632812 149.617188 266.6875 L 128.191406 266.6875 C 127.75 266.632812 127.304688 266.601562 126.859375 266.59375 C 126.414062 266.585938 125.96875 266.601562 125.523438 266.640625 C 125.078125 266.683594 124.636719 266.746094 124.199219 266.832031 C 123.761719 266.917969 123.332031 267.027344 122.90625 267.15625 C 122.480469 267.289062 122.0625 267.445312 121.652344 267.621094 C 121.242188 267.796875 120.84375 267.992188 120.453125 268.210938 C 120.066406 268.429688 119.6875 268.667969 119.324219 268.925781 C 118.960938 269.1875 118.613281 269.464844 118.28125 269.757812 C 117.945312 270.054688 117.628906 270.367188 117.328125 270.695312 C 117.023438 271.023438 116.742188 271.367188 116.476562 271.726562 C 116.214844 272.085938 115.96875 272.457031 115.742188 272.84375 C 115.519531 273.226562 115.3125 273.625 115.128906 274.03125 C 114.945312 274.4375 114.785156 274.851562 114.648438 275.277344 C 114.507812 275.699219 114.390625 276.128906 114.296875 276.566406 C 114.203125 277 114.132812 277.441406 114.085938 277.882812 C 114.039062 278.328125 114.015625 278.773438 114.015625 279.21875 C 114.015625 279.664062 114.039062 280.109375 114.085938 280.550781 C 114.132812 280.996094 114.203125 281.4375 114.296875 281.871094 C 114.390625 282.308594 114.507812 282.738281 114.648438 283.160156 C 114.785156 283.585938 114.945312 284 115.128906 284.40625 C 115.3125 284.8125 115.519531 285.210938 115.742188 285.59375 C 115.96875 285.980469 116.214844 286.351562 116.476562 286.710938 C 116.742188 287.070312 117.023438 287.414062 117.328125 287.742188 C 117.628906 288.070312 117.945312 288.382812 118.28125 288.679688 C 118.613281 288.972656 118.960938 289.25 119.324219 289.507812 C 119.6875 289.765625 120.066406 290.007812 120.453125 290.222656 C 120.84375 290.441406 121.242188 290.640625 121.652344 290.816406 C 122.0625 290.992188 122.480469 291.148438 122.90625 291.277344 C 123.332031 291.410156 123.761719 291.519531 124.199219 291.605469 C 124.636719 291.691406 125.078125 291.753906 125.523438 291.792969 C 125.96875 291.832031 126.414062 291.851562 126.859375 291.84375 C 127.304688 291.835938 127.75 291.804688 128.191406 291.75 Z M 128.191406 291.75 " fill-opacity="1" fill-rule="nonzero"/><g clip-path="url(#9374664ad0)"><path fill="#ffffff" d="M 64.875 59.132812 L 85.148438 59.132812 C 85.972656 59.121094 86.785156 59.03125 87.585938 58.859375 C 88.390625 58.6875 89.167969 58.441406 89.921875 58.117188 C 90.679688 57.796875 91.394531 57.402344 92.074219 56.941406 C 92.75 56.476562 93.378906 55.953125 93.953125 55.367188 C 94.53125 54.785156 95.042969 54.148438 95.496094 53.464844 C 95.949219 52.777344 96.332031 52.054688 96.640625 51.296875 C 96.953125 50.535156 97.1875 49.753906 97.347656 48.949219 C 97.503906 48.144531 97.585938 47.328125 97.585938 46.507812 C 97.597656 45.683594 97.527344 44.867188 97.378906 44.054688 C 97.230469 43.246094 97 42.457031 96.695312 41.691406 C 96.386719 40.925781 96.007812 40.199219 95.554688 39.507812 C 95.105469 38.820312 94.589844 38.179688 94.011719 37.59375 C 93.433594 37.003906 92.800781 36.480469 92.117188 36.019531 C 91.4375 35.554688 90.714844 35.164062 89.953125 34.847656 C 89.191406 34.527344 88.410156 34.289062 87.601562 34.125 C 86.792969 33.964844 85.976562 33.882812 85.148438 33.882812 L 64.875 33.882812 C 64.042969 33.882812 63.222656 33.964844 62.410156 34.125 C 61.597656 34.289062 60.808594 34.527344 60.042969 34.84375 C 59.277344 35.160156 58.546875 35.550781 57.859375 36.011719 C 57.167969 36.472656 56.53125 36.996094 55.945312 37.582031 C 55.359375 38.167969 54.835938 38.804688 54.375 39.496094 C 53.914062 40.183594 53.527344 40.910156 53.207031 41.675781 C 52.890625 42.441406 52.652344 43.230469 52.492188 44.046875 C 52.328125 44.859375 52.246094 45.679688 52.246094 46.507812 C 52.246094 47.335938 52.328125 48.160156 52.492188 48.972656 C 52.652344 49.785156 52.890625 50.574219 53.207031 51.339844 C 53.527344 52.105469 53.914062 52.832031 54.375 53.523438 C 54.835938 54.210938 55.359375 54.851562 55.945312 55.4375 C 56.53125 56.023438 57.167969 56.546875 57.859375 57.007812 C 58.546875 57.464844 59.277344 57.855469 60.042969 58.171875 C 60.808594 58.488281 61.597656 58.730469 62.410156 58.890625 C 63.222656 59.054688 64.042969 59.132812 64.875 59.132812 Z M 64.875 59.132812 " fill-opacity="1" fill-rule="nonzero"/></g><path fill="#ffffff" d="M 64.875 214.273438 L 85.148438 214.273438 C 85.980469 214.273438 86.800781 214.191406 87.613281 214.027344 C 88.425781 213.867188 89.214844 213.625 89.976562 213.308594 C 90.742188 212.992188 91.46875 212.601562 92.160156 212.140625 C 92.847656 211.679688 93.484375 211.15625 94.070312 210.570312 C 94.65625 209.984375 95.179688 209.347656 95.636719 208.660156 C 96.097656 207.96875 96.488281 207.242188 96.804688 206.476562 C 97.121094 205.710938 97.359375 204.921875 97.519531 204.109375 C 97.683594 203.296875 97.761719 202.476562 97.761719 201.648438 C 97.761719 200.820312 97.683594 200 97.519531 199.1875 C 97.359375 198.375 97.121094 197.585938 96.804688 196.820312 C 96.488281 196.054688 96.097656 195.328125 95.636719 194.636719 C 95.179688 193.949219 94.65625 193.3125 94.070312 192.726562 C 93.484375 192.140625 92.847656 191.617188 92.160156 191.15625 C 91.46875 190.695312 90.742188 190.304688 89.976562 189.988281 C 89.214844 189.671875 88.425781 189.429688 87.613281 189.269531 C 86.800781 189.105469 85.980469 189.023438 85.148438 189.023438 L 64.875 189.023438 C 64.042969 189.023438 63.222656 189.101562 62.410156 189.261719 C 61.59375 189.425781 60.804688 189.664062 60.039062 189.980469 C 59.269531 190.296875 58.542969 190.6875 57.851562 191.148438 C 57.164062 191.605469 56.523438 192.128906 55.9375 192.714844 C 55.351562 193.304688 54.828125 193.941406 54.367188 194.628906 C 53.90625 195.320312 53.515625 196.046875 53.199219 196.8125 C 52.878906 197.582031 52.640625 198.371094 52.476562 199.183594 C 52.316406 199.996094 52.234375 200.820312 52.234375 201.648438 C 52.234375 202.476562 52.316406 203.300781 52.476562 204.113281 C 52.640625 204.925781 52.878906 205.714844 53.199219 206.484375 C 53.515625 207.25 53.90625 207.976562 54.367188 208.667969 C 54.828125 209.355469 55.351562 209.992188 55.9375 210.582031 C 56.523438 211.167969 57.164062 211.691406 57.851562 212.152344 C 58.542969 212.609375 59.269531 213 60.039062 213.316406 C 60.804688 213.632812 61.59375 213.871094 62.410156 214.035156 C 63.222656 214.195312 64.042969 214.273438 64.875 214.273438 Z M 64.875 214.273438 " fill-opacity="1" fill-rule="nonzero"/><path fill="#ffffff" d="M 157.84375 214.273438 L 194.378906 214.273438 C 195.207031 214.273438 196.027344 214.191406 196.839844 214.027344 C 197.652344 213.867188 198.441406 213.625 199.207031 213.308594 C 199.972656 212.992188 200.699219 212.601562 201.386719 212.140625 C 202.078125 211.679688 202.714844 211.15625 203.300781 210.570312 C 203.882812 209.984375 204.40625 209.347656 204.867188 208.660156 C 205.328125 207.96875 205.714844 207.242188 206.03125 206.476562 C 206.351562 205.710938 206.589844 204.921875 206.75 204.109375 C 206.910156 203.296875 206.992188 202.476562 206.992188 201.648438 C 206.992188 200.820312 206.910156 200 206.75 199.1875 C 206.589844 198.375 206.351562 197.585938 206.03125 196.820312 C 205.714844 196.054688 205.328125 195.328125 204.867188 194.636719 C 204.40625 193.949219 203.882812 193.3125 203.300781 192.726562 C 202.714844 192.140625 202.078125 191.617188 201.386719 191.15625 C 200.699219 190.695312 199.972656 190.304688 199.207031 189.988281 C 198.441406 189.671875 197.652344 189.429688 196.839844 189.269531 C 196.027344 189.105469 195.207031 189.023438 194.378906 189.023438 L 157.84375 189.023438 C 157.015625 189.023438 156.195312 189.105469 155.382812 189.269531 C 154.570312 189.429688 153.78125 189.671875 153.015625 189.988281 C 152.25 190.304688 151.523438 190.695312 150.832031 191.15625 C 150.144531 191.617188 149.507812 192.140625 148.921875 192.726562 C 148.335938 193.3125 147.8125 193.949219 147.355469 194.636719 C 146.894531 195.328125 146.507812 196.054688 146.1875 196.820312 C 145.871094 197.585938 145.632812 198.375 145.472656 199.1875 C 145.308594 200 145.230469 200.820312 145.230469 201.648438 C 145.230469 202.476562 145.308594 203.296875 145.472656 204.109375 C 145.632812 204.921875 145.871094 205.710938 146.1875 206.476562 C 146.507812 207.242188 146.894531 207.96875 147.355469 208.660156 C 147.8125 209.347656 148.335938 209.984375 148.921875 210.570312 C 149.507812 211.15625 150.144531 211.679688 150.832031 212.140625 C 151.523438 212.601562 152.25 212.992188 153.015625 213.308594 C 153.78125 213.625 154.570312 213.867188 155.382812 214.027344 C 156.195312 214.191406 157.015625 214.273438 157.84375 214.273438 Z M 157.84375 214.273438 " fill-opacity="1" fill-rule="nonzero"/><path fill="#ffffff" d="M 64.875 446.886719 L 85.148438 446.886719 C 85.90625 446.792969 86.652344 446.632812 87.378906 446.40625 C 88.109375 446.175781 88.8125 445.882812 89.484375 445.527344 C 90.160156 445.171875 90.800781 444.757812 91.398438 444.285156 C 92 443.8125 92.554688 443.292969 93.058594 442.71875 C 93.566406 442.148438 94.015625 441.535156 94.410156 440.878906 C 94.804688 440.226562 95.136719 439.542969 95.40625 438.828125 C 95.675781 438.113281 95.882812 437.382812 96.019531 436.628906 C 96.15625 435.878906 96.222656 435.121094 96.222656 434.359375 C 96.222656 433.59375 96.15625 432.835938 96.019531 432.085938 C 95.882812 431.335938 95.675781 430.601562 95.40625 429.886719 C 95.136719 429.175781 94.804688 428.488281 94.410156 427.835938 C 94.015625 427.183594 93.566406 426.570312 93.058594 425.996094 C 92.554688 425.425781 92 424.902344 91.398438 424.429688 C 90.800781 423.960938 90.160156 423.546875 89.484375 423.1875 C 88.8125 422.832031 88.109375 422.539062 87.378906 422.3125 C 86.652344 422.082031 85.90625 421.921875 85.148438 421.828125 L 64.875 421.828125 C 64.429688 421.773438 63.984375 421.742188 63.539062 421.734375 C 63.09375 421.726562 62.648438 421.742188 62.207031 421.78125 C 61.761719 421.820312 61.320312 421.882812 60.882812 421.972656 C 60.445312 422.058594 60.011719 422.167969 59.585938 422.296875 C 59.160156 422.429688 58.742188 422.582031 58.332031 422.761719 C 57.921875 422.9375 57.523438 423.132812 57.136719 423.351562 C 56.746094 423.570312 56.371094 423.808594 56.007812 424.066406 C 55.644531 424.324219 55.296875 424.601562 54.960938 424.898438 C 54.625 425.195312 54.308594 425.503906 54.007812 425.835938 C 53.707031 426.164062 53.425781 426.507812 53.160156 426.867188 C 52.894531 427.226562 52.648438 427.597656 52.425781 427.984375 C 52.199219 428.367188 51.996094 428.761719 51.8125 429.171875 C 51.628906 429.578125 51.46875 429.992188 51.328125 430.414062 C 51.1875 430.839844 51.070312 431.269531 50.976562 431.703125 C 50.882812 432.140625 50.8125 432.582031 50.765625 433.023438 C 50.71875 433.46875 50.695312 433.914062 50.695312 434.359375 C 50.695312 434.804688 50.71875 435.25 50.765625 435.691406 C 50.8125 436.136719 50.882812 436.574219 50.976562 437.011719 C 51.070312 437.449219 51.1875 437.878906 51.328125 438.300781 C 51.46875 438.726562 51.628906 439.140625 51.8125 439.546875 C 51.996094 439.953125 52.199219 440.347656 52.425781 440.734375 C 52.648438 441.117188 52.894531 441.492188 53.160156 441.851562 C 53.425781 442.207031 53.707031 442.554688 54.007812 442.882812 C 54.308594 443.210938 54.625 443.523438 54.960938 443.820312 C 55.296875 444.113281 55.644531 444.390625 56.007812 444.648438 C 56.371094 444.90625 56.746094 445.144531 57.136719 445.363281 C 57.523438 445.582031 57.921875 445.78125 58.332031 445.957031 C 58.742188 446.132812 59.160156 446.285156 59.585938 446.417969 C 60.011719 446.550781 60.445312 446.660156 60.882812 446.746094 C 61.320312 446.832031 61.761719 446.894531 62.207031 446.933594 C 62.648438 446.972656 63.09375 446.988281 63.539062 446.980469 C 63.984375 446.972656 64.429688 446.941406 64.875 446.886719 Z M 64.875 446.886719 " fill-opacity="1" fill-rule="nonzero"/><path fill="#ffffff" d="M 64.875 291.75 L 85.148438 291.75 C 85.910156 291.65625 86.652344 291.492188 87.378906 291.265625 C 88.109375 291.035156 88.8125 290.742188 89.484375 290.386719 C 90.160156 290.03125 90.800781 289.617188 91.398438 289.144531 C 92 288.671875 92.554688 288.152344 93.058594 287.578125 C 93.566406 287.007812 94.015625 286.394531 94.410156 285.742188 C 94.804688 285.085938 95.136719 284.402344 95.40625 283.6875 C 95.675781 282.972656 95.882812 282.242188 96.019531 281.492188 C 96.15625 280.738281 96.226562 279.980469 96.226562 279.21875 C 96.226562 278.453125 96.15625 277.699219 96.019531 276.945312 C 95.882812 276.195312 95.675781 275.460938 95.40625 274.75 C 95.136719 274.035156 94.804688 273.351562 94.410156 272.695312 C 94.015625 272.042969 93.566406 271.429688 93.058594 270.855469 C 92.554688 270.285156 92 269.761719 91.398438 269.292969 C 90.800781 268.820312 90.160156 268.40625 89.484375 268.050781 C 88.8125 267.695312 88.109375 267.402344 87.378906 267.171875 C 86.652344 266.945312 85.910156 266.78125 85.148438 266.6875 L 64.875 266.6875 C 64.429688 266.632812 63.984375 266.601562 63.539062 266.59375 C 63.09375 266.585938 62.648438 266.601562 62.207031 266.640625 C 61.761719 266.683594 61.320312 266.746094 60.882812 266.832031 C 60.445312 266.917969 60.011719 267.027344 59.585938 267.15625 C 59.160156 267.289062 58.742188 267.445312 58.332031 267.621094 C 57.921875 267.796875 57.523438 267.992188 57.136719 268.210938 C 56.746094 268.429688 56.371094 268.667969 56.007812 268.925781 C 55.644531 269.1875 55.296875 269.464844 54.960938 269.757812 C 54.625 270.054688 54.308594 270.367188 54.007812 270.695312 C 53.707031 271.023438 53.425781 271.367188 53.160156 271.726562 C 52.894531 272.085938 52.648438 272.457031 52.425781 272.84375 C 52.199219 273.226562 51.996094 273.625 51.8125 274.03125 C 51.628906 274.4375 51.46875 274.851562 51.328125 275.277344 C 51.1875 275.699219 51.070312 276.128906 50.976562 276.566406 C 50.886719 277 50.8125 277.441406 50.765625 277.882812 C 50.71875 278.328125 50.695312 278.773438 50.695312 279.21875 C 50.695312 279.664062 50.71875 280.109375 50.765625 280.550781 C 50.8125 280.996094 50.886719 281.4375 50.976562 281.871094 C 51.070312 282.308594 51.1875 282.738281 51.328125 283.160156 C 51.46875 283.585938 51.628906 284 51.8125 284.40625 C 51.996094 284.8125 52.199219 285.210938 52.425781 285.59375 C 52.648438 285.980469 52.894531 286.351562 53.160156 286.710938 C 53.425781 287.070312 53.707031 287.414062 54.007812 287.742188 C 54.308594 288.070312 54.625 288.382812 54.960938 288.679688 C 55.296875 288.972656 55.644531 289.25 56.007812 289.507812 C 56.371094 289.765625 56.746094 290.007812 57.136719 290.222656 C 57.523438 290.441406 57.921875 290.640625 58.332031 290.816406 C 58.742188 290.992188 59.160156 291.148438 59.585938 291.277344 C 60.011719 291.410156 60.445312 291.519531 60.882812 291.605469 C 61.320312 291.691406 61.761719 291.753906 62.207031 291.792969 C 62.648438 291.832031 63.09375 291.851562 63.539062 291.84375 C 63.984375 291.835938 64.429688 291.804688 64.875 291.75 Z M 64.875 291.75 " fill-opacity="1" fill-rule="nonzero"/><path fill="#ffffff" d="M 64.875 369.414062 L 85.148438 369.414062 C 85.980469 369.414062 86.800781 369.332031 87.609375 369.167969 C 88.421875 369.003906 89.210938 368.765625 89.976562 368.449219 C 90.742188 368.128906 91.46875 367.742188 92.15625 367.28125 C 92.84375 366.820312 93.480469 366.296875 94.066406 365.710938 C 94.652344 365.125 95.175781 364.484375 95.632812 363.796875 C 96.09375 363.109375 96.480469 362.382812 96.800781 361.617188 C 97.117188 360.851562 97.355469 360.0625 97.515625 359.25 C 97.675781 358.4375 97.757812 357.617188 97.757812 356.789062 C 97.757812 355.960938 97.675781 355.140625 97.515625 354.328125 C 97.355469 353.515625 97.117188 352.726562 96.800781 351.960938 C 96.480469 351.195312 96.09375 350.46875 95.632812 349.78125 C 95.175781 349.089844 94.652344 348.453125 94.066406 347.867188 C 93.480469 347.28125 92.84375 346.757812 92.15625 346.296875 C 91.46875 345.835938 90.742188 345.445312 89.976562 345.128906 C 89.210938 344.8125 88.421875 344.570312 87.609375 344.410156 C 86.800781 344.246094 85.980469 344.164062 85.148438 344.164062 L 64.875 344.164062 C 64.042969 344.164062 63.226562 344.246094 62.414062 344.410156 C 61.601562 344.570312 60.8125 344.8125 60.046875 345.128906 C 59.28125 345.445312 58.554688 345.835938 57.867188 346.296875 C 57.179688 346.757812 56.542969 347.28125 55.957031 347.867188 C 55.371094 348.453125 54.847656 349.089844 54.390625 349.78125 C 53.929688 350.46875 53.542969 351.195312 53.222656 351.960938 C 52.90625 352.726562 52.667969 353.515625 52.507812 354.328125 C 52.347656 355.140625 52.265625 355.960938 52.265625 356.789062 C 52.265625 357.617188 52.347656 358.4375 52.507812 359.25 C 52.667969 360.0625 52.90625 360.851562 53.222656 361.617188 C 53.542969 362.382812 53.929688 363.109375 54.390625 363.796875 C 54.847656 364.484375 55.371094 365.125 55.957031 365.710938 C 56.542969 366.296875 57.179688 366.820312 57.867188 367.28125 C 58.554688 367.742188 59.28125 368.128906 60.046875 368.449219 C 60.8125 368.765625 61.601562 369.003906 62.414062 369.167969 C 63.226562 369.332031 64.042969 369.414062 64.875 369.414062 Z M 64.875 369.414062 " fill-opacity="1" fill-rule="nonzero"/><path fill="#ffffff" d="M 64.875 136.609375 L 85.148438 136.609375 C 85.910156 136.515625 86.652344 136.351562 87.378906 136.125 C 88.109375 135.894531 88.8125 135.601562 89.484375 135.246094 C 90.160156 134.890625 90.800781 134.476562 91.398438 134.003906 C 92 133.535156 92.554688 133.011719 93.058594 132.441406 C 93.566406 131.867188 94.015625 131.253906 94.410156 130.601562 C 94.804688 129.945312 95.136719 129.261719 95.40625 128.546875 C 95.675781 127.835938 95.882812 127.101562 96.019531 126.351562 C 96.15625 125.597656 96.226562 124.84375 96.226562 124.078125 C 96.226562 123.316406 96.15625 122.558594 96.019531 121.804688 C 95.882812 121.054688 95.675781 120.324219 95.40625 119.609375 C 95.136719 118.894531 94.804688 118.210938 94.410156 117.554688 C 94.015625 116.902344 93.566406 116.289062 93.058594 115.71875 C 92.554688 115.144531 92 114.625 91.398438 114.152344 C 90.800781 113.679688 90.160156 113.265625 89.484375 112.910156 C 88.8125 112.554688 88.109375 112.261719 87.378906 112.03125 C 86.652344 111.804688 85.910156 111.640625 85.148438 111.546875 L 64.875 111.546875 C 64.429688 111.492188 63.984375 111.460938 63.539062 111.453125 C 63.09375 111.445312 62.648438 111.464844 62.207031 111.503906 C 61.761719 111.542969 61.320312 111.605469 60.882812 111.691406 C 60.445312 111.777344 60.011719 111.886719 59.585938 112.019531 C 59.160156 112.148438 58.742188 112.304688 58.332031 112.480469 C 57.921875 112.65625 57.523438 112.855469 57.136719 113.074219 C 56.746094 113.289062 56.371094 113.53125 56.007812 113.789062 C 55.644531 114.046875 55.296875 114.324219 54.960938 114.617188 C 54.625 114.914062 54.308594 115.226562 54.007812 115.554688 C 53.707031 115.882812 53.425781 116.226562 53.160156 116.585938 C 52.894531 116.945312 52.648438 117.316406 52.425781 117.703125 C 52.199219 118.085938 51.996094 118.484375 51.8125 118.890625 C 51.628906 119.296875 51.46875 119.710938 51.328125 120.136719 C 51.1875 120.558594 51.070312 120.988281 50.976562 121.425781 C 50.886719 121.859375 50.8125 122.300781 50.765625 122.746094 C 50.71875 123.1875 50.695312 123.632812 50.695312 124.078125 C 50.695312 124.523438 50.71875 124.96875 50.765625 125.414062 C 50.8125 125.855469 50.886719 126.296875 50.976562 126.730469 C 51.070312 127.167969 51.1875 127.597656 51.328125 128.019531 C 51.46875 128.445312 51.628906 128.859375 51.8125 129.265625 C 51.996094 129.671875 52.199219 130.070312 52.425781 130.453125 C 52.648438 130.839844 52.894531 131.210938 53.160156 131.570312 C 53.425781 131.929688 53.707031 132.273438 54.007812 132.601562 C 54.308594 132.929688 54.625 133.242188 54.960938 133.539062 C 55.296875 133.832031 55.644531 134.109375 56.007812 134.367188 C 56.371094 134.628906 56.746094 134.867188 57.136719 135.085938 C 57.523438 135.304688 57.921875 135.5 58.332031 135.675781 C 58.742188 135.851562 59.160156 136.007812 59.585938 136.140625 C 60.011719 136.269531 60.445312 136.378906 60.882812 136.464844 C 61.320312 136.550781 61.761719 136.613281 62.207031 136.65625 C 62.648438 136.695312 63.09375 136.710938 63.539062 136.703125 C 63.984375 136.695312 64.429688 136.664062 64.875 136.609375 Z M 64.875 136.609375 " fill-opacity="1" fill-rule="nonzero"/><path fill="#ffffff" d="M 360.230469 318.53125 C 359.046875 317.324219 357.671875 316.390625 356.117188 315.726562 C 354.558594 315.0625 352.933594 314.722656 351.242188 314.703125 C 349.59375 314.710938 348.007812 315.03125 346.484375 315.660156 C 344.964844 316.289062 343.613281 317.179688 342.441406 318.339844 L 290.792969 369.414062 C 289.546875 370.574219 288.59375 371.9375 287.925781 373.503906 C 287.261719 375.070312 286.941406 376.703125 286.964844 378.40625 C 286.984375 380.097656 287.324219 381.722656 287.988281 383.277344 C 288.652344 384.835938 289.585938 386.207031 290.792969 387.394531 L 342.441406 438.28125 C 343.589844 439.472656 344.929688 440.386719 346.460938 441.019531 C 347.992188 441.652344 349.585938 441.949219 351.242188 441.914062 C 352.492188 441.9375 353.71875 441.773438 354.917969 441.421875 C 356.121094 441.074219 357.242188 440.558594 358.289062 439.867188 C 359.332031 439.179688 360.253906 438.355469 361.050781 437.390625 C 361.84375 436.425781 362.480469 435.363281 362.957031 434.207031 C 363.429688 433.050781 363.722656 431.847656 363.835938 430.601562 C 363.949219 429.355469 363.875 428.121094 363.617188 426.898438 C 363.355469 425.675781 362.921875 424.515625 362.3125 423.421875 C 361.703125 422.332031 360.945312 421.351562 360.039062 420.488281 L 317.957031 378.214844 L 360.421875 336.128906 C 360.984375 335.539062 361.484375 334.902344 361.921875 334.214844 C 362.359375 333.527344 362.726562 332.804688 363.023438 332.046875 C 363.320312 331.292969 363.542969 330.511719 363.691406 329.710938 C 363.839844 328.910156 363.910156 328.105469 363.898438 327.289062 C 363.890625 326.476562 363.804688 325.671875 363.640625 324.875 C 363.476562 324.078125 363.234375 323.300781 362.921875 322.550781 C 362.605469 321.800781 362.222656 321.085938 361.769531 320.410156 C 361.320312 319.734375 360.804688 319.105469 360.230469 318.53125 Z M 360.230469 318.53125 " fill-opacity="1" fill-rule="nonzero"/><path fill="#ffffff" d="M 501.980469 254.636719 C 499.488281 252.417969 496.929688 250.277344 494.304688 248.214844 C 491.683594 246.148438 489 244.167969 486.257812 242.265625 C 483.515625 240.363281 480.71875 238.546875 477.863281 236.8125 C 475.011719 235.082031 472.109375 233.4375 469.15625 231.878906 C 466.207031 230.320312 463.207031 228.855469 460.167969 227.480469 C 457.128906 226.101562 454.046875 224.820312 450.929688 223.628906 C 447.8125 222.441406 444.660156 221.34375 441.476562 220.347656 C 438.289062 219.347656 435.078125 218.445312 431.839844 217.640625 C 428.601562 216.832031 425.339844 216.125 422.058594 215.519531 C 418.777344 214.910156 415.480469 214.402344 412.167969 213.992188 C 408.855469 213.582031 405.535156 213.273438 402.203125 213.066406 C 398.871094 212.859375 395.539062 212.75 392.199219 212.742188 C 388.863281 212.738281 385.527344 212.832031 382.195312 213.027344 C 378.863281 213.222656 375.539062 213.515625 372.226562 213.914062 C 368.914062 214.308594 365.613281 214.804688 362.328125 215.398438 C 359.042969 215.992188 355.78125 216.6875 352.539062 217.480469 C 349.296875 218.273438 346.082031 219.160156 342.894531 220.148438 C 339.703125 221.136719 336.550781 222.21875 333.425781 223.394531 C 330.304688 224.570312 327.21875 225.84375 324.171875 227.207031 C 321.125 228.570312 318.125 230.023438 315.164062 231.570312 C 312.207031 233.117188 309.296875 234.75 306.4375 236.46875 C 303.578125 238.191406 300.773438 239.996094 298.023438 241.886719 C 295.273438 243.777344 292.582031 245.75 289.949219 247.804688 C 287.320312 249.855469 284.753906 251.988281 282.25 254.195312 C 279.746094 256.40625 277.316406 258.6875 274.949219 261.042969 C 272.585938 263.398438 270.292969 265.824219 268.074219 268.316406 C 265.859375 270.8125 263.71875 273.371094 261.652344 275.992188 C 259.589844 278.617188 257.609375 281.300781 255.707031 284.042969 C 253.804688 286.785156 251.988281 289.585938 250.257812 292.4375 C 248.527344 295.289062 246.882812 298.191406 245.324219 301.144531 C 243.769531 304.097656 242.300781 307.09375 240.925781 310.136719 C 239.550781 313.175781 238.269531 316.257812 237.078125 319.375 C 235.890625 322.492188 234.796875 325.644531 233.796875 328.828125 C 232.800781 332.015625 231.898438 335.226562 231.09375 338.464844 C 230.289062 341.703125 229.582031 344.964844 228.972656 348.246094 C 228.367188 351.527344 227.859375 354.824219 227.449219 358.136719 C 227.042969 361.449219 226.734375 364.773438 226.527344 368.105469 C 226.320312 371.433594 226.210938 374.769531 226.207031 378.105469 C 226.199219 381.445312 226.296875 384.78125 226.492188 388.113281 C 226.6875 391.445312 226.980469 394.765625 227.378906 398.082031 C 227.773438 401.394531 228.269531 404.691406 228.867188 407.976562 C 229.460938 411.261719 230.15625 414.523438 230.949219 417.765625 C 231.742188 421.007812 232.632812 424.222656 233.621094 427.410156 C 234.609375 430.601562 235.691406 433.753906 236.867188 436.878906 C 238.046875 440 239.316406 443.085938 240.683594 446.132812 C 242.046875 449.175781 243.503906 452.179688 245.046875 455.136719 C 246.59375 458.09375 248.226562 461.003906 249.949219 463.863281 C 251.671875 466.722656 253.476562 469.527344 255.371094 472.277344 C 257.261719 475.027344 259.234375 477.71875 261.289062 480.347656 C 263.339844 482.980469 265.472656 485.546875 267.679688 488.046875 C 269.890625 490.550781 272.171875 492.984375 274.527344 495.347656 C 276.886719 497.710938 279.308594 500 281.804688 502.21875 C 284.300781 504.4375 286.859375 506.578125 289.484375 508.640625 C 292.105469 510.703125 294.789062 512.683594 297.535156 514.585938 C 300.277344 516.484375 303.074219 518.300781 305.929688 520.03125 C 308.78125 521.761719 311.6875 523.40625 314.636719 524.964844 C 317.589844 526.519531 320.589844 527.984375 323.628906 529.359375 C 326.671875 530.734375 329.75 532.015625 332.871094 533.203125 C 335.988281 534.394531 339.140625 535.488281 342.324219 536.484375 C 345.511719 537.484375 348.722656 538.382812 351.960938 539.1875 C 355.199219 539.992188 358.460938 540.695312 361.742188 541.304688 C 365.027344 541.910156 368.324219 542.417969 371.636719 542.824219 C 374.949219 543.234375 378.269531 543.539062 381.601562 543.746094 C 384.933594 543.953125 388.265625 544.058594 391.605469 544.066406 L 401.550781 544.066406 C 405.613281 543.832031 409.664062 543.445312 413.699219 542.910156 C 417.734375 542.378906 421.742188 541.695312 425.726562 540.867188 C 429.710938 540.035156 433.660156 539.0625 437.570312 537.941406 C 441.484375 536.820312 445.351562 535.558594 449.171875 534.152344 C 452.988281 532.746094 456.753906 531.203125 460.457031 529.519531 C 464.164062 527.839844 467.800781 526.019531 471.375 524.070312 C 474.945312 522.121094 478.441406 520.039062 481.859375 517.832031 C 485.277344 515.621094 488.609375 513.292969 491.855469 510.835938 C 495.105469 508.382812 498.257812 505.8125 501.3125 503.125 C 504.371094 500.441406 507.324219 497.644531 510.175781 494.742188 C 513.027344 491.835938 515.769531 488.832031 518.398438 485.726562 C 521.027344 482.621094 523.539062 479.421875 525.933594 476.128906 C 528.328125 472.839844 530.597656 469.464844 532.742188 466.003906 C 534.886719 462.546875 536.902344 459.011719 538.789062 455.40625 C 540.671875 451.800781 542.421875 448.128906 544.035156 444.390625 C 545.648438 440.65625 547.125 436.867188 548.460938 433.019531 C 549.792969 429.175781 550.988281 425.289062 552.035156 421.355469 C 553.082031 417.421875 553.984375 413.457031 554.742188 409.457031 C 555.496094 405.460938 556.105469 401.4375 556.566406 397.394531 C 557.023438 393.351562 557.335938 389.296875 557.496094 385.226562 C 557.65625 381.160156 557.667969 377.09375 557.527344 373.027344 C 557.390625 368.960938 557.101562 364.902344 556.664062 360.855469 C 556.226562 356.8125 555.640625 352.785156 554.90625 348.78125 C 554.171875 344.78125 553.289062 340.808594 552.261719 336.871094 C 551.234375 332.933594 550.0625 329.039062 548.75 325.1875 C 547.4375 321.335938 545.980469 317.535156 544.386719 313.792969 C 542.792969 310.046875 541.0625 306.367188 539.199219 302.75 C 537.332031 299.132812 535.335938 295.589844 533.210938 292.117188 C 531.082031 288.648438 528.832031 285.261719 526.457031 281.957031 C 524.078125 278.652344 521.585938 275.441406 518.972656 272.320312 C 516.359375 269.199219 513.632812 266.179688 510.796875 263.261719 C 507.964844 260.34375 505.023438 257.53125 501.980469 254.828125 Z M 497.007812 471.757812 C 493.953125 475.210938 490.734375 478.507812 487.351562 481.640625 C 483.96875 484.777344 480.441406 487.738281 476.765625 490.523438 C 473.089844 493.308594 469.285156 495.902344 465.351562 498.3125 C 461.417969 500.71875 457.375 502.925781 453.222656 504.933594 C 449.070312 506.9375 444.828125 508.734375 440.496094 510.320312 C 436.167969 511.90625 431.769531 513.273438 427.300781 514.421875 C 422.835938 515.574219 418.324219 516.5 413.765625 517.199219 C 409.207031 517.902344 404.625 518.375 400.019531 518.625 L 391.796875 518.625 C 388.960938 518.621094 386.128906 518.535156 383.300781 518.363281 C 380.472656 518.191406 377.652344 517.933594 374.839844 517.589844 C 372.027344 517.246094 369.226562 516.820312 366.441406 516.308594 C 363.652344 515.796875 360.882812 515.199219 358.132812 514.519531 C 355.382812 513.839844 352.652344 513.078125 349.949219 512.234375 C 347.242188 511.390625 344.566406 510.464844 341.917969 509.457031 C 339.269531 508.449219 336.652344 507.363281 334.070312 506.199219 C 331.484375 505.035156 328.9375 503.792969 326.429688 502.476562 C 323.921875 501.15625 321.457031 499.765625 319.03125 498.296875 C 316.609375 496.828125 314.230469 495.289062 311.898438 493.675781 C 309.570312 492.066406 307.289062 490.386719 305.058594 488.636719 C 302.828125 486.886719 300.65625 485.070312 298.535156 483.191406 C 296.417969 481.308594 294.355469 479.367188 292.351562 477.363281 C 290.351562 475.355469 288.410156 473.292969 286.535156 471.167969 C 284.65625 469.046875 282.84375 466.871094 281.097656 464.636719 C 279.351562 462.40625 277.675781 460.121094 276.070312 457.789062 C 274.460938 455.453125 272.925781 453.074219 271.460938 450.648438 C 270 448.222656 268.609375 445.753906 267.292969 443.242188 C 265.980469 440.734375 264.742188 438.183594 263.582031 435.597656 C 262.421875 433.015625 261.339844 430.394531 260.339844 427.746094 C 259.335938 425.09375 258.414062 422.417969 257.574219 419.710938 C 256.734375 417.003906 255.976562 414.273438 255.300781 411.523438 C 254.625 408.769531 254.035156 406 253.527344 403.210938 C 253.019531 400.425781 252.597656 397.625 252.257812 394.808594 C 251.917969 391.996094 251.667969 389.175781 251.5 386.347656 C 251.332031 383.515625 251.25 380.6875 251.253906 377.851562 C 251.253906 375.019531 251.34375 372.1875 251.519531 369.359375 C 251.695312 366.53125 251.953125 363.710938 252.300781 360.898438 C 252.644531 358.085938 253.074219 355.285156 253.589844 352.5 C 254.101562 349.710938 254.699219 346.941406 255.382812 344.191406 C 256.066406 341.441406 256.828125 338.714844 257.675781 336.011719 C 258.523438 333.304688 259.449219 330.628906 260.457031 327.980469 C 261.46875 325.332031 262.554688 322.71875 263.722656 320.136719 C 264.886719 317.554688 266.132812 315.007812 267.453125 312.5 C 268.773438 309.992188 270.167969 307.527344 271.636719 305.105469 C 273.105469 302.683594 274.648438 300.304688 276.261719 297.976562 C 277.875 295.648438 279.558594 293.367188 281.308594 291.140625 C 283.058594 288.910156 284.875 286.738281 286.757812 284.621094 C 288.640625 282.503906 290.585938 280.441406 292.59375 278.441406 C 294.601562 276.441406 296.664062 274.503906 298.789062 272.628906 C 300.914062 270.753906 303.09375 268.941406 305.328125 267.199219 C 307.558594 265.453125 309.84375 263.78125 312.179688 262.175781 C 314.515625 260.566406 316.894531 259.035156 319.324219 257.574219 C 321.75 256.109375 324.21875 254.722656 326.730469 253.410156 C 329.242188 252.097656 331.792969 250.863281 334.378906 249.703125 C 336.964844 248.546875 339.582031 247.46875 342.234375 246.46875 C 344.886719 245.46875 347.566406 244.546875 350.273438 243.710938 C 352.980469 242.871094 355.710938 242.117188 358.460938 241.441406 C 361.214844 240.769531 363.984375 240.179688 366.773438 239.675781 C 369.5625 239.171875 372.363281 238.75 375.175781 238.414062 C 377.992188 238.078125 380.8125 237.824219 383.640625 237.660156 C 386.46875 237.496094 389.300781 237.414062 392.136719 237.421875 C 394.96875 237.425781 397.800781 237.519531 400.628906 237.695312 C 403.457031 237.871094 406.277344 238.132812 409.089844 238.480469 C 411.902344 238.828125 414.699219 239.261719 417.488281 239.777344 C 420.273438 240.292969 423.042969 240.894531 425.792969 241.578125 C 428.542969 242.261719 431.269531 243.027344 433.972656 243.878906 C 436.675781 244.726562 439.351562 245.65625 442 246.667969 C 444.644531 247.675781 447.261719 248.765625 449.84375 249.9375 C 452.421875 251.105469 454.96875 252.351562 457.472656 253.671875 C 459.980469 254.996094 462.445312 256.390625 464.867188 257.863281 C 467.289062 259.335938 469.664062 260.878906 471.992188 262.492188 C 474.320312 264.109375 476.597656 265.792969 478.824219 267.546875 C 481.050781 269.296875 483.222656 271.117188 485.339844 273 C 487.054688 274.53125 488.734375 276.101562 490.375 277.710938 C 492.015625 279.320312 493.617188 280.972656 495.175781 282.660156 C 496.734375 284.351562 498.253906 286.078125 499.726562 287.839844 C 501.203125 289.605469 502.632812 291.402344 504.019531 293.238281 C 505.40625 295.070312 506.746094 296.9375 508.042969 298.839844 C 509.335938 300.738281 510.585938 302.667969 511.785156 304.628906 C 512.984375 306.589844 514.136719 308.582031 515.238281 310.597656 C 516.339844 312.617188 517.394531 314.660156 518.394531 316.726562 C 519.398438 318.796875 520.351562 320.890625 521.25 323.003906 C 522.148438 325.121094 522.996094 327.257812 523.792969 329.414062 C 524.585938 331.574219 525.328125 333.75 526.015625 335.941406 C 526.703125 338.136719 527.339844 340.34375 527.917969 342.570312 C 528.5 344.796875 529.023438 347.03125 529.492188 349.285156 C 529.964844 351.535156 530.378906 353.796875 530.738281 356.066406 C 531.097656 358.335938 531.398438 360.617188 531.648438 362.902344 C 531.894531 365.1875 532.085938 367.476562 532.222656 369.773438 C 532.355469 372.066406 532.433594 374.367188 532.457031 376.664062 C 532.480469 378.964844 532.445312 381.261719 532.355469 383.558594 C 532.265625 385.855469 532.117188 388.152344 531.914062 390.441406 C 531.710938 392.730469 531.453125 395.015625 531.136719 397.292969 C 530.824219 399.570312 530.453125 401.839844 530.027344 404.097656 C 529.597656 406.355469 529.117188 408.605469 528.582031 410.839844 C 528.046875 413.074219 527.453125 415.296875 526.808594 417.503906 C 526.164062 419.710938 525.464844 421.898438 524.710938 424.074219 C 523.957031 426.246094 523.152344 428.398438 522.292969 430.53125 C 521.433594 432.664062 520.523438 434.773438 519.5625 436.863281 C 518.601562 438.949219 517.589844 441.015625 516.523438 443.050781 C 515.460938 445.089844 514.347656 447.101562 513.1875 449.085938 C 512.023438 451.070312 510.816406 453.023438 509.558594 454.949219 C 508.300781 456.875 506.996094 458.765625 505.644531 460.628906 C 504.292969 462.488281 502.898438 464.3125 501.457031 466.105469 C 500.015625 467.898438 498.535156 469.65625 497.007812 471.375 Z M 497.007812 471.757812 " fill-opacity="1" fill-rule="nonzero"/><g clip-path="url(#b384f1fafb)"><path fill="#ffffff" d="M 773.238281 266.6875 L 672.425781 266.6875 C 671.980469 266.632812 671.539062 266.601562 671.09375 266.59375 C 670.644531 266.585938 670.199219 266.601562 669.757812 266.640625 C 669.3125 266.683594 668.871094 266.746094 668.433594 266.832031 C 667.996094 266.917969 667.566406 267.027344 667.140625 267.15625 C 666.710938 267.289062 666.296875 267.445312 665.886719 267.621094 C 665.476562 267.796875 665.078125 267.992188 664.6875 268.210938 C 664.296875 268.429688 663.921875 268.667969 663.558594 268.925781 C 663.195312 269.1875 662.847656 269.464844 662.511719 269.757812 C 662.179688 270.054688 661.859375 270.367188 661.558594 270.695312 C 661.257812 271.023438 660.976562 271.367188 660.710938 271.726562 C 660.445312 272.085938 660.203125 272.457031 659.976562 272.84375 C 659.75 273.226562 659.546875 273.625 659.363281 274.03125 C 659.179688 274.4375 659.019531 274.851562 658.878906 275.277344 C 658.742188 275.699219 658.625 276.128906 658.53125 276.566406 C 658.4375 277 658.367188 277.441406 658.320312 277.882812 C 658.273438 278.328125 658.25 278.773438 658.25 279.21875 C 658.25 279.664062 658.273438 280.109375 658.320312 280.550781 C 658.367188 280.996094 658.4375 281.4375 658.53125 281.871094 C 658.625 282.308594 658.742188 282.738281 658.878906 283.160156 C 659.019531 283.585938 659.179688 284 659.363281 284.40625 C 659.546875 284.8125 659.75 285.210938 659.976562 285.59375 C 660.203125 285.980469 660.445312 286.351562 660.710938 286.710938 C 660.976562 287.070312 661.257812 287.414062 661.558594 287.742188 C 661.859375 288.070312 662.179688 288.382812 662.511719 288.679688 C 662.847656 288.972656 663.195312 289.25 663.558594 289.507812 C 663.921875 289.765625 664.296875 290.007812 664.6875 290.222656 C 665.078125 290.441406 665.476562 290.640625 665.886719 290.816406 C 666.296875 290.992188 666.710938 291.148438 667.140625 291.277344 C 667.566406 291.410156 667.996094 291.519531 668.433594 291.605469 C 668.871094 291.691406 669.3125 291.753906 669.757812 291.792969 C 670.199219 291.832031 670.644531 291.851562 671.09375 291.84375 C 671.539062 291.835938 671.980469 291.804688 672.425781 291.75 L 773.238281 291.75 C 773.679688 291.804688 774.125 291.835938 774.570312 291.84375 C 775.015625 291.851562 775.460938 291.832031 775.90625 291.792969 C 776.347656 291.753906 776.789062 291.691406 777.226562 291.605469 C 777.664062 291.519531 778.097656 291.410156 778.523438 291.277344 C 778.949219 291.148438 779.367188 290.992188 779.777344 290.816406 C 780.1875 290.640625 780.585938 290.441406 780.972656 290.222656 C 781.363281 290.007812 781.738281 289.765625 782.101562 289.507812 C 782.464844 289.25 782.816406 288.972656 783.148438 288.679688 C 783.484375 288.382812 783.800781 288.070312 784.101562 287.742188 C 784.402344 287.414062 784.6875 287.070312 784.949219 286.710938 C 785.214844 286.351562 785.460938 285.980469 785.6875 285.59375 C 785.910156 285.210938 786.113281 284.8125 786.296875 284.40625 C 786.480469 284 786.644531 283.585938 786.78125 283.160156 C 786.921875 282.738281 787.039062 282.308594 787.132812 281.871094 C 787.226562 281.4375 787.296875 280.996094 787.34375 280.550781 C 787.390625 280.109375 787.414062 279.664062 787.414062 279.21875 C 787.414062 278.773438 787.390625 278.328125 787.34375 277.882812 C 787.296875 277.441406 787.226562 277 787.132812 276.566406 C 787.039062 276.128906 786.921875 275.699219 786.78125 275.277344 C 786.644531 274.851562 786.480469 274.4375 786.296875 274.03125 C 786.113281 273.625 785.910156 273.226562 785.6875 272.84375 C 785.460938 272.457031 785.214844 272.085938 784.949219 271.726562 C 784.6875 271.367188 784.402344 271.023438 784.101562 270.695312 C 783.800781 270.367188 783.484375 270.054688 783.148438 269.757812 C 782.816406 269.464844 782.464844 269.1875 782.101562 268.925781 C 781.738281 268.667969 781.363281 268.429688 780.972656 268.210938 C 780.585938 267.992188 780.1875 267.796875 779.777344 267.621094 C 779.367188 267.445312 778.949219 267.289062 778.523438 267.15625 C 778.097656 267.027344 777.664062 266.917969 777.226562 266.832031 C 776.789062 266.746094 776.347656 266.683594 775.90625 266.640625 C 775.460938 266.601562 775.015625 266.585938 774.570312 266.59375 C 774.125 266.601562 773.679688 266.632812 773.238281 266.6875 Z M 773.238281 266.6875 " fill-opacity="1" fill-rule="nonzero"/></g><g clip-path="url(#01518857f0)"><path fill="#ffffff" d="M 773.238281 189.023438 L 493.5625 189.023438 C 485.785156 184.851562 477.777344 181.175781 469.546875 177.996094 C 461.3125 174.8125 452.914062 172.152344 444.351562 170.007812 C 435.789062 167.863281 427.128906 166.253906 418.367188 165.175781 C 409.605469 164.101562 400.8125 163.570312 391.988281 163.582031 C 383.074219 163.597656 374.199219 164.15625 365.355469 165.261719 C 356.515625 166.367188 347.773438 168.007812 339.132812 170.183594 C 330.488281 172.359375 322.015625 175.058594 313.703125 178.273438 C 305.390625 181.488281 297.308594 185.199219 289.453125 189.40625 L 267.261719 189.40625 C 266.433594 189.40625 265.613281 189.488281 264.800781 189.648438 C 263.988281 189.808594 263.195312 190.050781 262.429688 190.367188 C 261.664062 190.683594 260.9375 191.074219 260.25 191.535156 C 259.558594 191.992188 258.921875 192.515625 258.335938 193.101562 C 257.75 193.691406 257.226562 194.328125 256.765625 195.015625 C 256.304688 195.707031 255.914062 196.433594 255.597656 197.199219 C 255.28125 197.964844 255.042969 198.753906 254.878906 199.566406 C 254.71875 200.382812 254.636719 201.203125 254.636719 202.03125 C 254.652344 203.628906 254.960938 205.171875 255.554688 206.65625 C 256.148438 208.140625 256.988281 209.46875 258.082031 210.640625 C 248.09375 218.398438 238.917969 227.023438 230.554688 236.511719 C 222.191406 246 214.789062 256.1875 208.34375 267.070312 L 192.65625 267.070312 C 192.214844 267.015625 191.769531 266.984375 191.324219 266.976562 C 190.878906 266.96875 190.433594 266.984375 189.988281 267.023438 C 189.546875 267.066406 189.105469 267.128906 188.667969 267.214844 C 188.230469 267.300781 187.796875 267.410156 187.371094 267.539062 C 186.945312 267.671875 186.527344 267.828125 186.117188 268.003906 C 185.707031 268.179688 185.308594 268.375 184.921875 268.59375 C 184.53125 268.8125 184.15625 269.050781 183.792969 269.308594 C 183.429688 269.570312 183.078125 269.84375 182.746094 270.140625 C 182.410156 270.4375 182.09375 270.75 181.792969 271.078125 C 181.492188 271.40625 181.207031 271.75 180.945312 272.109375 C 180.679688 272.46875 180.433594 272.839844 180.210938 273.226562 C 179.984375 273.609375 179.78125 274.007812 179.597656 274.414062 C 179.414062 274.820312 179.253906 275.234375 179.113281 275.65625 C 178.972656 276.082031 178.855469 276.511719 178.761719 276.949219 C 178.667969 277.382812 178.597656 277.824219 178.550781 278.265625 C 178.503906 278.710938 178.480469 279.15625 178.480469 279.601562 C 178.480469 280.046875 178.503906 280.492188 178.550781 280.933594 C 178.597656 281.378906 178.667969 281.820312 178.761719 282.253906 C 178.855469 282.691406 178.972656 283.121094 179.113281 283.542969 C 179.253906 283.96875 179.414062 284.382812 179.597656 284.789062 C 179.78125 285.195312 179.984375 285.589844 180.210938 285.976562 C 180.433594 286.363281 180.679688 286.734375 180.945312 287.09375 C 181.207031 287.453125 181.492188 287.796875 181.792969 288.125 C 182.09375 288.453125 182.410156 288.765625 182.746094 289.0625 C 183.078125 289.355469 183.429688 289.632812 183.792969 289.890625 C 184.15625 290.148438 184.53125 290.386719 184.921875 290.605469 C 185.308594 290.824219 185.707031 291.023438 186.117188 291.199219 C 186.527344 291.375 186.945312 291.53125 187.371094 291.660156 C 187.796875 291.792969 188.230469 291.902344 188.667969 291.988281 C 189.105469 292.074219 189.546875 292.136719 189.988281 292.175781 C 190.433594 292.214844 190.878906 292.230469 191.324219 292.222656 C 191.769531 292.21875 192.214844 292.1875 192.65625 292.128906 L 195.144531 292.128906 C 187.816406 308.953125 182.714844 326.425781 179.839844 344.546875 L 164.921875 344.546875 C 164.089844 344.546875 163.269531 344.625 162.457031 344.789062 C 161.644531 344.949219 160.855469 345.1875 160.089844 345.507812 C 159.324219 345.824219 158.59375 346.210938 157.90625 346.671875 C 157.214844 347.132812 156.578125 347.65625 155.992188 348.242188 C 155.40625 348.828125 154.882812 349.46875 154.421875 350.15625 C 153.960938 350.847656 153.574219 351.574219 153.253906 352.339844 C 152.9375 353.105469 152.699219 353.894531 152.539062 354.707031 C 152.375 355.519531 152.292969 356.34375 152.292969 357.171875 C 152.292969 358 152.375 358.820312 152.539062 359.632812 C 152.699219 360.445312 152.9375 361.238281 153.253906 362.003906 C 153.574219 362.769531 153.960938 363.496094 154.421875 364.183594 C 154.882812 364.875 155.40625 365.511719 155.992188 366.097656 C 156.578125 366.683594 157.214844 367.207031 157.90625 367.667969 C 158.59375 368.128906 159.324219 368.519531 160.089844 368.835938 C 160.855469 369.152344 161.644531 369.390625 162.457031 369.554688 C 163.269531 369.714844 164.089844 369.796875 164.921875 369.796875 L 177.929688 369.796875 C 177.28125 387.445312 178.75 404.917969 182.328125 422.210938 L 175.441406 422.210938 C 174.683594 422.304688 173.941406 422.464844 173.210938 422.695312 C 172.484375 422.921875 171.78125 423.214844 171.105469 423.570312 C 170.429688 423.929688 169.792969 424.34375 169.191406 424.8125 C 168.589844 425.285156 168.039062 425.808594 167.53125 426.378906 C 167.027344 426.953125 166.578125 427.566406 166.183594 428.21875 C 165.789062 428.871094 165.457031 429.558594 165.183594 430.269531 C 164.914062 430.984375 164.710938 431.71875 164.574219 432.46875 C 164.4375 433.21875 164.367188 433.976562 164.367188 434.742188 C 164.367188 435.503906 164.4375 436.261719 164.574219 437.011719 C 164.710938 437.765625 164.914062 438.496094 165.183594 439.210938 C 165.457031 439.925781 165.789062 440.609375 166.183594 441.261719 C 166.578125 441.917969 167.027344 442.53125 167.53125 443.101562 C 168.039062 443.675781 168.589844 444.195312 169.191406 444.667969 C 169.792969 445.140625 170.429688 445.554688 171.105469 445.910156 C 171.78125 446.265625 172.484375 446.558594 173.210938 446.785156 C 173.941406 447.015625 174.683594 447.175781 175.441406 447.269531 L 188.257812 447.269531 C 191.519531 457.214844 195.539062 466.84375 200.308594 476.15625 L 167.980469 512.121094 C 167.398438 512.707031 166.878906 513.339844 166.425781 514.027344 C 165.96875 514.714844 165.582031 515.441406 165.269531 516.203125 C 164.953125 516.96875 164.714844 517.753906 164.554688 518.5625 C 164.394531 519.371094 164.316406 520.191406 164.316406 521.015625 C 164.316406 521.839844 164.394531 522.65625 164.554688 523.464844 C 164.714844 524.277344 164.953125 525.0625 165.269531 525.824219 C 165.582031 526.589844 165.96875 527.3125 166.425781 528 C 166.878906 528.6875 167.398438 529.324219 167.980469 529.910156 L 171.042969 532.589844 L 46.507812 673.761719 C 45.171875 675.277344 43.914062 676.847656 42.730469 678.484375 C 41.546875 680.121094 40.449219 681.808594 39.429688 683.550781 C 38.414062 685.296875 37.484375 687.082031 36.644531 688.917969 C 35.800781 690.753906 35.050781 692.621094 34.394531 694.53125 C 33.734375 696.4375 33.171875 698.375 32.703125 700.335938 C 32.234375 702.300781 31.863281 704.28125 31.585938 706.28125 C 31.3125 708.277344 31.136719 710.285156 31.058594 712.304688 C 30.980469 714.320312 31 716.335938 31.121094 718.347656 C 31.238281 720.363281 31.457031 722.367188 31.773438 724.359375 C 32.089844 726.355469 32.5 728.328125 33.011719 730.28125 C 33.519531 732.234375 34.125 734.15625 34.820312 736.050781 C 35.519531 737.941406 36.308594 739.796875 37.1875 741.613281 C 38.066406 743.429688 39.03125 745.199219 40.085938 746.921875 C 41.136719 748.644531 42.273438 750.308594 43.488281 751.921875 C 44.703125 753.53125 45.996094 755.078125 47.363281 756.5625 C 48.730469 758.046875 50.167969 759.460938 51.671875 760.800781 C 54.457031 763.3125 57.449219 765.542969 60.644531 767.5 C 63.839844 769.457031 67.1875 771.109375 70.683594 772.449219 C 74.183594 773.789062 77.777344 774.800781 81.460938 775.480469 C 85.148438 776.15625 88.863281 776.496094 92.609375 776.488281 C 94.78125 776.484375 96.945312 776.367188 99.101562 776.136719 C 101.261719 775.90625 103.398438 775.5625 105.523438 775.109375 C 107.644531 774.652344 109.734375 774.089844 111.796875 773.414062 C 113.859375 772.738281 115.882812 771.957031 117.863281 771.070312 C 119.84375 770.183594 121.769531 769.191406 123.648438 768.101562 C 125.523438 767.011719 127.339844 765.828125 129.089844 764.546875 C 130.84375 763.265625 132.523438 761.898438 134.128906 760.441406 C 135.738281 758.984375 137.265625 757.445312 138.710938 755.828125 L 264.203125 614.652344 L 267.261719 617.332031 C 268.417969 618.375 269.71875 619.175781 271.171875 619.734375 C 272.621094 620.296875 274.125 620.578125 275.679688 620.582031 C 277.464844 620.554688 279.171875 620.175781 280.800781 619.445312 C 282.429688 618.714844 283.847656 617.691406 285.054688 616.375 L 317.957031 580.027344 C 329.855469 584.480469 342.054688 587.828125 354.558594 590.078125 C 367.0625 592.328125 379.664062 593.441406 392.371094 593.417969 C 395.164062 593.425781 397.957031 593.375 400.75 593.269531 C 403.542969 593.167969 406.332031 593.007812 409.117188 592.796875 C 411.902344 592.582031 414.683594 592.3125 417.460938 591.992188 C 420.234375 591.671875 423.003906 591.296875 425.765625 590.863281 C 428.527344 590.433594 431.277344 589.953125 434.019531 589.414062 C 436.761719 588.878906 439.492188 588.285156 442.210938 587.640625 C 444.933594 587 447.636719 586.300781 450.328125 585.550781 C 453.019531 584.800781 455.699219 584 458.359375 583.144531 C 461.019531 582.292969 463.660156 581.386719 466.285156 580.429688 C 468.910156 579.472656 471.515625 578.460938 474.101562 577.402344 C 476.6875 576.34375 479.253906 575.234375 481.796875 574.074219 C 484.339844 572.917969 486.855469 571.707031 489.351562 570.449219 C 491.847656 569.191406 494.316406 567.886719 496.761719 566.53125 C 499.207031 565.179688 501.625 563.777344 504.011719 562.328125 C 506.402344 560.878906 508.761719 559.386719 511.09375 557.84375 C 513.425781 556.304688 515.726562 554.71875 517.996094 553.085938 C 520.261719 551.457031 522.5 549.78125 524.703125 548.0625 C 526.90625 546.347656 529.078125 544.585938 531.210938 542.78125 C 533.347656 540.980469 535.445312 539.136719 537.507812 537.253906 C 539.574219 535.367188 541.597656 533.441406 543.585938 531.480469 C 545.574219 529.515625 547.523438 527.511719 549.433594 525.472656 C 551.34375 523.433594 553.210938 521.355469 555.039062 519.246094 C 556.867188 517.132812 558.65625 514.984375 560.402344 512.800781 C 562.144531 510.617188 563.847656 508.402344 565.503906 506.152344 C 567.164062 503.902344 568.777344 501.625 570.347656 499.3125 C 571.914062 497 573.4375 494.65625 574.917969 492.285156 C 576.394531 489.914062 577.824219 487.515625 579.207031 485.085938 C 580.59375 482.660156 581.929688 480.203125 583.214844 477.726562 C 584.503906 475.246094 585.742188 472.742188 586.933594 470.214844 C 588.125 467.683594 589.265625 465.136719 590.355469 462.5625 C 591.445312 459.988281 592.484375 457.394531 593.476562 454.78125 C 594.464844 452.167969 595.402344 449.539062 596.289062 446.886719 L 773.238281 446.886719 C 773.679688 446.941406 774.125 446.972656 774.570312 446.980469 C 775.015625 446.988281 775.460938 446.972656 775.90625 446.933594 C 776.347656 446.894531 776.789062 446.832031 777.226562 446.746094 C 777.664062 446.660156 778.097656 446.550781 778.523438 446.417969 C 778.949219 446.285156 779.367188 446.132812 779.777344 445.957031 C 780.1875 445.78125 780.585938 445.582031 780.976562 445.363281 C 781.363281 445.144531 781.738281 444.90625 782.101562 444.648438 C 782.464844 444.390625 782.816406 444.113281 783.148438 443.820312 C 783.484375 443.523438 783.800781 443.210938 784.101562 442.882812 C 784.402344 442.554688 784.6875 442.207031 784.949219 441.851562 C 785.214844 441.492188 785.460938 441.117188 785.6875 440.734375 C 785.910156 440.347656 786.113281 439.953125 786.296875 439.546875 C 786.480469 439.140625 786.644531 438.726562 786.78125 438.300781 C 786.921875 437.878906 787.039062 437.449219 787.132812 437.011719 C 787.226562 436.574219 787.296875 436.136719 787.34375 435.691406 C 787.390625 435.25 787.414062 434.804688 787.414062 434.359375 C 787.414062 433.914062 787.390625 433.46875 787.34375 433.023438 C 787.296875 432.582031 787.226562 432.140625 787.132812 431.703125 C 787.039062 431.269531 786.921875 430.839844 786.78125 430.414062 C 786.644531 429.992188 786.480469 429.578125 786.296875 429.171875 C 786.113281 428.761719 785.910156 428.367188 785.6875 427.984375 C 785.460938 427.597656 785.214844 427.226562 784.949219 426.867188 C 784.6875 426.507812 784.402344 426.164062 784.101562 425.835938 C 783.800781 425.503906 783.484375 425.195312 783.148438 424.898438 C 782.816406 424.601562 782.464844 424.324219 782.101562 424.066406 C 781.738281 423.808594 781.363281 423.570312 780.972656 423.351562 C 780.585938 423.132812 780.1875 422.9375 779.777344 422.761719 C 779.367188 422.582031 778.949219 422.429688 778.523438 422.296875 C 778.097656 422.167969 777.664062 422.058594 777.226562 421.972656 C 776.789062 421.882812 776.347656 421.820312 775.90625 421.78125 C 775.460938 421.742188 775.015625 421.726562 774.570312 421.734375 C 774.125 421.742188 773.679688 421.773438 773.238281 421.828125 L 602.410156 421.828125 C 605.910156 404.527344 607.3125 387.054688 606.621094 369.414062 L 773.238281 369.414062 C 774.066406 369.414062 774.886719 369.332031 775.699219 369.167969 C 776.511719 369.003906 777.296875 368.765625 778.0625 368.449219 C 778.828125 368.128906 779.554688 367.742188 780.242188 367.28125 C 780.929688 366.820312 781.566406 366.296875 782.152344 365.710938 C 782.738281 365.125 783.261719 364.484375 783.722656 363.796875 C 784.179688 363.109375 784.570312 362.382812 784.886719 361.617188 C 785.203125 360.851562 785.441406 360.0625 785.601562 359.25 C 785.765625 358.4375 785.84375 357.617188 785.84375 356.789062 C 785.84375 355.960938 785.765625 355.140625 785.601562 354.328125 C 785.441406 353.515625 785.203125 352.726562 784.886719 351.960938 C 784.570312 351.195312 784.179688 350.46875 783.722656 349.78125 C 783.261719 349.089844 782.738281 348.453125 782.152344 347.867188 C 781.566406 347.28125 780.929688 346.757812 780.242188 346.296875 C 779.554688 345.835938 778.828125 345.445312 778.0625 345.128906 C 777.296875 344.8125 776.511719 344.570312 775.699219 344.410156 C 774.886719 344.246094 774.066406 344.164062 773.238281 344.164062 L 604.898438 344.164062 C 603.933594 338.109375 602.707031 332.109375 601.226562 326.160156 C 599.746094 320.210938 598.015625 314.335938 596.03125 308.539062 C 594.046875 302.738281 591.816406 297.03125 589.34375 291.425781 C 586.871094 285.816406 584.164062 280.324219 581.21875 274.945312 C 578.273438 269.570312 575.105469 264.328125 571.710938 259.222656 C 568.316406 254.121094 564.710938 249.167969 560.890625 244.375 C 557.074219 239.578125 553.058594 234.957031 548.84375 230.503906 C 544.628906 226.054688 540.230469 221.792969 535.648438 217.71875 C 534.265625 216.460938 532.800781 215.3125 531.25 214.273438 L 773.238281 214.273438 C 774.066406 214.273438 774.886719 214.191406 775.699219 214.027344 C 776.511719 213.867188 777.300781 213.625 778.066406 213.308594 C 778.832031 212.992188 779.558594 212.601562 780.246094 212.140625 C 780.933594 211.679688 781.570312 211.15625 782.15625 210.570312 C 782.742188 209.984375 783.265625 209.347656 783.726562 208.660156 C 784.183594 207.96875 784.574219 207.242188 784.890625 206.476562 C 785.207031 205.710938 785.445312 204.921875 785.609375 204.109375 C 785.769531 203.296875 785.851562 202.476562 785.851562 201.648438 C 785.851562 200.820312 785.769531 200 785.609375 199.1875 C 785.445312 198.375 785.207031 197.585938 784.890625 196.820312 C 784.574219 196.054688 784.183594 195.328125 783.726562 194.636719 C 783.265625 193.949219 782.742188 193.3125 782.15625 192.726562 C 781.570312 192.140625 780.933594 191.617188 780.246094 191.15625 C 779.558594 190.695312 778.828125 190.304688 778.066406 189.988281 C 777.300781 189.671875 776.511719 189.429688 775.699219 189.269531 C 774.886719 189.105469 774.066406 189.023438 773.238281 189.023438 Z M 533.734375 504.660156 C 532.101562 506.496094 530.429688 508.300781 528.726562 510.074219 C 527.019531 511.847656 525.28125 513.585938 523.507812 515.292969 C 521.734375 516.996094 519.929688 518.667969 518.089844 520.300781 C 516.253906 521.9375 514.382812 523.535156 512.484375 525.097656 C 510.582031 526.660156 508.652344 528.183594 506.695312 529.671875 C 504.734375 531.160156 502.746094 532.605469 500.730469 534.015625 C 498.714844 535.425781 496.671875 536.796875 494.605469 538.128906 C 492.535156 539.457031 490.441406 540.746094 488.320312 541.996094 C 486.203125 543.246094 484.058594 544.453125 481.894531 545.617188 C 479.726562 546.785156 477.539062 547.90625 475.328125 548.988281 C 473.117188 550.070312 470.890625 551.105469 468.636719 552.101562 C 466.386719 553.09375 464.121094 554.042969 461.832031 554.949219 C 459.546875 555.855469 457.242188 556.714844 454.921875 557.53125 C 452.601562 558.347656 450.265625 559.117188 447.914062 559.84375 C 445.5625 560.570312 443.199219 561.246094 440.824219 561.882812 C 438.445312 562.515625 436.058594 563.101562 433.65625 563.640625 C 431.257812 564.183594 428.847656 564.675781 426.429688 565.121094 C 424.007812 565.570312 421.582031 565.96875 419.148438 566.320312 C 416.714844 566.671875 414.273438 566.976562 411.828125 567.234375 C 409.378906 567.492188 406.929688 567.703125 404.476562 567.863281 C 402.019531 568.027344 399.5625 568.140625 397.105469 568.207031 C 394.644531 568.273438 392.1875 568.292969 389.726562 568.265625 C 387.265625 568.234375 384.808594 568.15625 382.351562 568.035156 C 379.894531 567.910156 377.441406 567.734375 374.992188 567.515625 C 372.542969 567.296875 370.097656 567.027344 367.65625 566.714844 C 365.21875 566.398438 362.785156 566.035156 360.359375 565.625 C 357.933594 565.214844 355.515625 564.757812 353.109375 564.253906 C 350.703125 563.75 348.304688 563.203125 345.917969 562.605469 C 343.53125 562.007812 341.15625 561.363281 338.796875 560.675781 C 336.433594 559.984375 334.085938 559.25 331.753906 558.46875 C 329.421875 557.6875 327.105469 556.863281 324.804688 555.992188 C 322.503906 555.121094 320.222656 554.207031 317.957031 553.246094 C 313.746094 551.527344 309.921875 549.613281 305.90625 547.699219 L 302.078125 545.789062 L 292.324219 540.238281 L 285.820312 535.839844 L 279.695312 531.25 C 275.105469 527.804688 270.515625 524.363281 266.304688 520.535156 C 262.097656 516.710938 257.890625 512.503906 254.0625 508.484375 C 250.238281 504.46875 250.046875 504.085938 248.324219 501.789062 L 243.351562 496.050781 C 241.054688 492.988281 238.761719 489.929688 236.65625 486.675781 L 234.359375 483.425781 C 231.875 479.789062 229.578125 475.964844 227.472656 472.140625 C 226.039062 469.625 224.664062 467.078125 223.347656 464.503906 C 222.027344 461.925781 220.769531 459.320312 219.574219 456.6875 C 218.375 454.054688 217.238281 451.390625 216.160156 448.707031 C 215.085938 446.019531 214.070312 443.3125 213.117188 440.578125 C 212.164062 437.84375 211.273438 435.09375 210.449219 432.320312 C 209.621094 429.546875 208.859375 426.753906 208.160156 423.945312 C 207.460938 421.136719 206.828125 418.316406 206.257812 415.476562 C 205.6875 412.640625 205.183594 409.792969 204.742188 406.929688 C 204.304688 404.070312 203.929688 401.203125 203.621094 398.324219 C 203.3125 395.445312 203.070312 392.5625 202.894531 389.675781 C 202.71875 386.785156 202.609375 383.894531 202.5625 381.003906 C 202.519531 378.109375 202.542969 375.214844 202.628906 372.324219 C 202.71875 369.429688 202.875 366.539062 203.09375 363.65625 C 203.3125 360.769531 203.601562 357.890625 203.953125 355.019531 C 204.304688 352.144531 204.722656 349.28125 205.207031 346.429688 C 205.6875 343.578125 206.238281 340.734375 206.851562 337.90625 C 207.464844 335.078125 208.140625 332.265625 208.882812 329.46875 C 209.625 326.671875 210.429688 323.894531 211.300781 321.132812 C 212.167969 318.371094 213.101562 315.632812 214.09375 312.914062 C 215.089844 310.199219 216.144531 307.503906 217.261719 304.835938 C 218.378906 302.164062 219.558594 299.523438 220.796875 296.90625 C 222.035156 294.292969 223.332031 291.707031 224.6875 289.148438 C 226.046875 286.59375 227.460938 284.070312 228.933594 281.578125 C 230.402344 279.085938 231.933594 276.628906 233.515625 274.207031 C 235.101562 271.785156 236.742188 269.402344 238.433594 267.054688 C 240.128906 264.710938 241.875 262.402344 243.675781 260.136719 C 245.472656 257.867188 247.324219 255.644531 249.222656 253.460938 C 251.125 251.28125 253.074219 249.144531 255.074219 247.050781 C 257.074219 244.957031 259.117188 242.910156 261.210938 240.914062 C 263.304688 238.914062 265.441406 236.960938 267.621094 235.0625 C 269.804688 233.160156 272.027344 231.308594 274.292969 229.507812 C 276.558594 227.710938 278.867188 225.960938 281.210938 224.269531 C 283.558594 222.574219 285.941406 220.933594 288.363281 219.347656 C 290.785156 217.765625 293.242188 216.234375 295.730469 214.761719 C 298.222656 213.289062 300.746094 211.875 303.300781 210.515625 C 305.859375 209.160156 308.445312 207.863281 311.058594 206.621094 C 313.675781 205.382812 316.316406 204.203125 318.984375 203.085938 C 321.65625 201.96875 324.347656 200.914062 327.066406 199.917969 C 329.785156 198.921875 332.523438 197.988281 335.28125 197.121094 C 338.042969 196.25 340.820312 195.445312 343.617188 194.703125 C 346.414062 193.960938 349.226562 193.28125 352.054688 192.667969 C 354.882812 192.054688 357.726562 191.503906 360.578125 191.019531 C 363.429688 190.539062 366.292969 190.117188 369.167969 189.765625 C 372.039062 189.414062 374.917969 189.125 377.804688 188.90625 C 380.6875 188.683594 383.578125 188.527344 386.46875 188.441406 C 389.363281 188.351562 392.257812 188.328125 395.148438 188.371094 C 398.042969 188.414062 400.933594 188.523438 403.824219 188.699219 C 406.710938 188.875 409.59375 189.117188 412.472656 189.425781 C 415.351562 189.730469 418.21875 190.105469 421.078125 190.542969 C 423.941406 190.984375 426.789062 191.488281 429.625 192.054688 C 432.464844 192.625 435.285156 193.257812 438.09375 193.957031 C 440.902344 194.65625 443.695312 195.417969 446.46875 196.242188 C 449.242188 197.070312 451.996094 197.957031 454.726562 198.910156 C 457.460938 199.863281 460.171875 200.875 462.855469 201.953125 C 465.542969 203.027344 468.203125 204.164062 470.839844 205.363281 C 473.472656 206.558594 476.078125 207.816406 478.65625 209.132812 C 481.234375 210.453125 483.777344 211.828125 486.292969 213.257812 C 488.808594 214.691406 491.285156 216.183594 493.734375 217.730469 C 496.179688 219.277344 498.585938 220.878906 500.960938 222.535156 C 503.332031 224.191406 505.667969 225.902344 507.960938 227.667969 C 510.253906 229.429688 512.507812 231.246094 514.71875 233.113281 C 516.929688 234.980469 519.097656 236.894531 521.222656 238.863281 C 523.34375 240.828125 525.421875 242.839844 527.453125 244.902344 C 529.484375 246.964844 531.46875 249.070312 533.40625 251.222656 C 535.339844 253.375 537.226562 255.566406 539.058594 257.804688 C 540.894531 260.042969 542.675781 262.324219 544.40625 264.644531 C 546.136719 266.960938 547.8125 269.320312 549.4375 271.714844 C 551.058594 274.113281 552.625 276.546875 554.136719 279.011719 C 555.648438 281.480469 557.101562 283.980469 558.5 286.515625 C 559.898438 289.050781 561.234375 291.617188 562.515625 294.210938 C 563.792969 296.808594 565.011719 299.429688 566.171875 302.082031 C 567.332031 304.734375 568.429688 307.410156 569.46875 310.113281 C 570.503906 312.816406 571.480469 315.539062 572.390625 318.285156 C 573.304688 321.03125 574.152344 323.796875 574.941406 326.582031 C 575.726562 329.367188 576.449219 332.167969 577.105469 334.988281 C 577.761719 337.804688 578.355469 340.636719 578.882812 343.484375 C 579.410156 346.328125 579.875 349.183594 580.273438 352.050781 C 580.667969 354.917969 581 357.792969 581.265625 360.671875 C 581.535156 363.554688 581.734375 366.441406 581.867188 369.332031 C 582 372.222656 582.070312 375.113281 582.070312 378.007812 C 582.070312 380.902344 582.007812 383.796875 581.875 386.6875 C 581.746094 389.578125 581.550781 392.464844 581.285156 395.347656 C 581.023438 398.226562 580.695312 401.101562 580.300781 403.96875 C 579.90625 406.835938 579.445312 409.691406 578.921875 412.539062 C 578.398438 415.386719 577.808594 418.21875 577.152344 421.035156 C 576.496094 423.855469 575.78125 426.65625 574.996094 429.445312 C 574.214844 432.230469 573.367188 434.996094 572.457031 437.742188 C 571.550781 440.492188 570.578125 443.214844 569.542969 445.917969 C 568.507812 448.621094 567.414062 451.300781 566.257812 453.953125 C 565.101562 456.605469 563.882812 459.230469 562.605469 461.828125 C 561.332031 464.425781 559.996094 466.992188 558.601562 469.527344 C 557.207031 472.0625 555.753906 474.566406 554.246094 477.035156 C 552.738281 479.503906 551.175781 481.941406 549.554688 484.335938 C 547.933594 486.734375 546.261719 489.09375 544.53125 491.417969 C 542.804688 493.738281 541.023438 496.019531 539.191406 498.257812 C 537.359375 500.5 535.476562 502.695312 533.546875 504.851562 Z M 65.445312 690.597656 L 190.9375 550.378906 L 245.457031 598.96875 L 119.964844 738.996094 C 118.257812 740.933594 116.359375 742.667969 114.277344 744.203125 C 112.195312 745.734375 109.976562 747.027344 107.617188 748.085938 C 105.257812 749.140625 102.8125 749.933594 100.28125 750.464844 C 97.753906 750.996094 95.195312 751.253906 92.609375 751.238281 C 90.460938 751.148438 88.339844 750.871094 86.238281 750.410156 C 84.136719 749.953125 82.09375 749.3125 80.105469 748.5 C 78.113281 747.683594 76.210938 746.703125 74.390625 745.558594 C 72.574219 744.410156 70.867188 743.117188 69.273438 741.671875 C 68.382812 740.894531 67.53125 740.074219 66.722656 739.210938 C 65.910156 738.347656 65.144531 737.449219 64.421875 736.511719 C 63.699219 735.574219 63.023438 734.605469 62.394531 733.601562 C 61.765625 732.601562 61.1875 731.570312 60.660156 730.511719 C 60.128906 729.453125 59.652344 728.371094 59.230469 727.265625 C 58.808594 726.160156 58.4375 725.039062 58.125 723.898438 C 57.808594 722.757812 57.550781 721.601562 57.347656 720.4375 C 57.144531 719.269531 57 718.097656 56.914062 716.917969 C 56.824219 715.738281 56.792969 714.554688 56.820312 713.375 C 56.84375 712.191406 56.929688 711.011719 57.070312 709.835938 C 57.210938 708.660156 57.410156 707.496094 57.664062 706.339844 C 57.917969 705.183594 58.226562 704.042969 58.589844 702.917969 C 58.957031 701.792969 59.375 700.6875 59.847656 699.601562 C 60.320312 698.519531 60.84375 697.457031 61.417969 696.425781 C 61.996094 695.390625 62.617188 694.386719 63.292969 693.414062 C 63.964844 692.441406 64.683594 691.5 65.445312 690.597656 Z M 271.664062 587.488281 L 208.535156 531.25 L 195.144531 519.390625 L 214.273438 498.539062 L 215.421875 499.875 C 219.566406 505.925781 224.03125 511.726562 228.8125 517.285156 L 231.683594 520.917969 C 237.230469 527.039062 243.160156 533.160156 249.472656 538.902344 C 255.5625 544.363281 261.9375 549.464844 268.601562 554.203125 C 269.75 555.160156 271.28125 555.925781 272.617188 556.882812 C 278.78125 561.121094 285.160156 565.011719 291.75 568.550781 L 292.703125 568.550781 L 273.574219 589.402344 Z M 271.664062 587.488281 " fill-opacity="1" fill-rule="nonzero"/></g><path fill="#ffffff" d="M 163.390625 123.984375 C 163.375 124.816406 163.445312 125.640625 163.601562 126.460938 C 163.753906 127.277344 163.984375 128.074219 164.296875 128.84375 C 164.609375 129.617188 164.996094 130.347656 165.457031 131.042969 C 165.917969 131.738281 166.441406 132.378906 167.03125 132.96875 C 167.617188 133.558594 168.261719 134.082031 168.953125 134.539062 C 169.648438 135 170.382812 135.386719 171.152344 135.699219 C 171.925781 136.011719 172.71875 136.246094 173.539062 136.398438 C 174.355469 136.550781 175.183594 136.621094 176.015625 136.609375 L 222.308594 136.609375 C 222.75 136.664062 223.195312 136.695312 223.640625 136.703125 C 224.085938 136.710938 224.53125 136.695312 224.976562 136.65625 C 225.421875 136.613281 225.863281 136.550781 226.300781 136.464844 C 226.738281 136.378906 227.167969 136.269531 227.59375 136.140625 C 228.019531 136.007812 228.4375 135.851562 228.847656 135.675781 C 229.257812 135.5 229.65625 135.304688 230.046875 135.085938 C 230.433594 134.867188 230.8125 134.628906 231.175781 134.367188 C 231.539062 134.109375 231.886719 133.832031 232.222656 133.539062 C 232.554688 133.242188 232.871094 132.929688 233.175781 132.601562 C 233.476562 132.273438 233.757812 131.929688 234.023438 131.570312 C 234.285156 131.210938 234.53125 130.839844 234.757812 130.453125 C 234.980469 130.070312 235.1875 129.671875 235.371094 129.265625 C 235.554688 128.859375 235.714844 128.445312 235.855469 128.019531 C 235.992188 127.597656 236.109375 127.167969 236.203125 126.730469 C 236.296875 126.296875 236.367188 125.855469 236.414062 125.414062 C 236.460938 124.96875 236.484375 124.523438 236.484375 124.078125 C 236.484375 123.632812 236.460938 123.1875 236.414062 122.746094 C 236.367188 122.300781 236.296875 121.859375 236.203125 121.425781 C 236.109375 120.988281 235.992188 120.558594 235.855469 120.136719 C 235.714844 119.710938 235.554688 119.296875 235.371094 118.890625 C 235.1875 118.484375 234.980469 118.085938 234.757812 117.703125 C 234.53125 117.316406 234.285156 116.945312 234.023438 116.585938 C 233.757812 116.226562 233.476562 115.882812 233.171875 115.554688 C 232.871094 115.226562 232.554688 114.914062 232.222656 114.617188 C 231.886719 114.324219 231.539062 114.046875 231.175781 113.789062 C 230.8125 113.53125 230.433594 113.289062 230.046875 113.074219 C 229.65625 112.855469 229.257812 112.65625 228.847656 112.480469 C 228.4375 112.304688 228.019531 112.148438 227.59375 112.019531 C 227.167969 111.886719 226.738281 111.777344 226.300781 111.691406 C 225.863281 111.605469 225.421875 111.542969 224.976562 111.503906 C 224.53125 111.464844 224.085938 111.445312 223.640625 111.453125 C 223.195312 111.460938 222.75 111.492188 222.308594 111.546875 L 176.015625 111.546875 C 175.191406 111.535156 174.375 111.605469 173.5625 111.753906 C 172.75 111.90625 171.964844 112.132812 171.199219 112.441406 C 170.433594 112.746094 169.707031 113.125 169.015625 113.578125 C 168.324219 114.027344 167.6875 114.542969 167.097656 115.121094 C 166.511719 115.699219 165.988281 116.332031 165.523438 117.015625 C 165.0625 117.699219 164.671875 118.417969 164.355469 119.179688 C 164.035156 119.941406 163.796875 120.726562 163.632812 121.535156 C 163.472656 122.339844 163.390625 123.160156 163.390625 123.984375 Z M 163.390625 123.984375 " fill-opacity="1" fill-rule="nonzero"/><g clip-path="url(#eef9ac2415)"><path fill="#ffffff" d="M 378.40625 59.132812 L 415.132812 59.132812 C 415.953125 59.121094 416.765625 59.03125 417.570312 58.859375 C 418.371094 58.6875 419.152344 58.441406 419.90625 58.117188 C 420.660156 57.796875 421.378906 57.402344 422.054688 56.941406 C 422.734375 56.476562 423.363281 55.953125 423.9375 55.367188 C 424.515625 54.785156 425.027344 54.148438 425.480469 53.464844 C 425.933594 52.777344 426.3125 52.054688 426.625 51.296875 C 426.9375 50.535156 427.171875 49.753906 427.332031 48.949219 C 427.488281 48.144531 427.566406 47.328125 427.566406 46.507812 C 427.582031 45.683594 427.511719 44.867188 427.363281 44.054688 C 427.210938 43.246094 426.984375 42.457031 426.675781 41.691406 C 426.371094 40.925781 425.992188 40.199219 425.539062 39.507812 C 425.085938 38.820312 424.574219 38.179688 423.996094 37.59375 C 423.414062 37.003906 422.785156 36.480469 422.101562 36.019531 C 421.417969 35.554688 420.695312 35.164062 419.9375 34.847656 C 419.175781 34.527344 418.390625 34.289062 417.582031 34.125 C 416.773438 33.964844 415.957031 33.882812 415.132812 33.882812 L 378.40625 33.882812 C 377.574219 33.882812 376.753906 33.964844 375.941406 34.125 C 375.128906 34.289062 374.339844 34.527344 373.574219 34.84375 C 372.808594 35.160156 372.078125 35.550781 371.390625 36.011719 C 370.703125 36.472656 370.0625 36.996094 369.476562 37.582031 C 368.890625 38.167969 368.367188 38.804688 367.90625 39.496094 C 367.445312 40.183594 367.058594 40.910156 366.742188 41.675781 C 366.421875 42.441406 366.183594 43.230469 366.023438 44.046875 C 365.859375 44.859375 365.78125 45.679688 365.78125 46.507812 C 365.78125 47.335938 365.859375 48.160156 366.023438 48.972656 C 366.183594 49.785156 366.421875 50.574219 366.742188 51.339844 C 367.058594 52.105469 367.445312 52.832031 367.90625 53.523438 C 368.367188 54.210938 368.890625 54.851562 369.476562 55.4375 C 370.0625 56.023438 370.703125 56.546875 371.390625 57.007812 C 372.078125 57.464844 372.808594 57.855469 373.574219 58.171875 C 374.339844 58.488281 375.128906 58.730469 375.941406 58.890625 C 376.753906 59.054688 377.574219 59.132812 378.40625 59.132812 Z M 378.40625 59.132812 " fill-opacity="1" fill-rule="nonzero"/></g><g clip-path="url(#c179d096d9)"><path fill="#ffffff" d="M 268.410156 59.132812 L 305.140625 59.132812 C 305.976562 59.148438 306.804688 59.078125 307.628906 58.925781 C 308.453125 58.773438 309.253906 58.539062 310.03125 58.226562 C 310.804688 57.917969 311.546875 57.53125 312.246094 57.074219 C 312.945312 56.613281 313.59375 56.09375 314.191406 55.503906 C 314.785156 54.917969 315.320312 54.277344 315.789062 53.582031 C 316.257812 52.890625 316.652344 52.15625 316.976562 51.382812 C 317.300781 50.613281 317.542969 49.816406 317.707031 48.996094 C 317.875 48.175781 317.957031 47.34375 317.957031 46.507812 C 317.96875 45.667969 317.898438 44.835938 317.742188 44.007812 C 317.585938 43.179688 317.347656 42.378906 317.03125 41.601562 C 316.710938 40.824219 316.320312 40.085938 315.851562 39.386719 C 315.382812 38.6875 314.847656 38.042969 314.25 37.453125 C 313.648438 36.863281 312.996094 36.339844 312.292969 35.882812 C 311.585938 35.421875 310.84375 35.042969 310.058594 34.734375 C 309.277344 34.425781 308.472656 34.203125 307.644531 34.058594 C 306.8125 33.914062 305.980469 33.855469 305.140625 33.882812 L 268.410156 33.882812 C 267.582031 33.882812 266.761719 33.964844 265.949219 34.125 C 265.132812 34.289062 264.34375 34.527344 263.578125 34.84375 C 262.8125 35.160156 262.085938 35.550781 261.394531 36.011719 C 260.707031 36.472656 260.070312 36.996094 259.484375 37.582031 C 258.898438 38.167969 258.375 38.804688 257.914062 39.496094 C 257.453125 40.183594 257.0625 40.910156 256.746094 41.675781 C 256.429688 42.441406 256.191406 43.230469 256.027344 44.046875 C 255.867188 44.859375 255.785156 45.679688 255.785156 46.507812 C 255.785156 47.335938 255.867188 48.160156 256.027344 48.972656 C 256.191406 49.785156 256.429688 50.574219 256.746094 51.339844 C 257.0625 52.105469 257.453125 52.832031 257.914062 53.523438 C 258.375 54.210938 258.898438 54.851562 259.484375 55.4375 C 260.070312 56.023438 260.707031 56.546875 261.394531 57.007812 C 262.085938 57.464844 262.8125 57.855469 263.578125 58.171875 C 264.34375 58.488281 265.132812 58.730469 265.949219 58.890625 C 266.761719 59.054688 267.582031 59.132812 268.410156 59.132812 Z M 268.410156 59.132812 " fill-opacity="1" fill-rule="nonzero"/></g><path fill="#ffffff" d="M 440.382812 318.339844 C 439.191406 317.214844 437.835938 316.339844 436.320312 315.710938 C 434.800781 315.085938 433.226562 314.75 431.585938 314.703125 C 429.894531 314.722656 428.269531 315.0625 426.710938 315.726562 C 425.152344 316.390625 423.78125 317.324219 422.59375 318.53125 C 422 319.109375 421.472656 319.742188 421.003906 320.425781 C 420.539062 321.109375 420.144531 321.835938 419.824219 322.597656 C 419.5 323.363281 419.257812 324.152344 419.09375 324.964844 C 418.929688 325.773438 418.847656 326.597656 418.847656 327.425781 C 418.847656 328.253906 418.929688 329.074219 419.09375 329.886719 C 419.257812 330.699219 419.5 331.488281 419.824219 332.25 C 420.144531 333.015625 420.539062 333.738281 421.003906 334.421875 C 421.472656 335.109375 422 335.742188 422.59375 336.320312 L 465.253906 378.214844 L 422.59375 420.296875 C 422.089844 420.898438 421.644531 421.539062 421.257812 422.21875 C 420.871094 422.902344 420.554688 423.613281 420.300781 424.355469 C 420.046875 425.097656 419.863281 425.859375 419.753906 426.632812 C 419.640625 427.410156 419.601562 428.1875 419.632812 428.972656 C 419.667969 429.753906 419.773438 430.527344 419.949219 431.292969 C 420.128906 432.054688 420.375 432.796875 420.691406 433.511719 C 421.003906 434.230469 421.382812 434.914062 421.824219 435.558594 C 422.269531 436.207031 422.765625 436.808594 423.320312 437.363281 C 423.875 437.914062 424.476562 438.414062 425.121094 438.855469 C 425.769531 439.300781 426.453125 439.679688 427.167969 439.992188 C 427.886719 440.308594 428.628906 440.554688 429.390625 440.730469 C 430.15625 440.910156 430.929688 441.015625 431.710938 441.046875 C 432.496094 441.082031 433.273438 441.042969 434.050781 440.929688 C 434.824219 440.820312 435.585938 440.636719 436.324219 440.382812 C 437.066406 440.128906 437.78125 439.8125 438.460938 439.425781 C 439.144531 439.039062 439.785156 438.59375 440.382812 438.089844 L 492.035156 387.203125 C 493.179688 385.984375 494.066406 384.601562 494.695312 383.050781 C 495.320312 381.5 495.644531 379.886719 495.667969 378.214844 C 495.675781 376.535156 495.363281 374.917969 494.734375 373.359375 C 494.105469 371.804688 493.207031 370.425781 492.035156 369.222656 Z M 440.382812 318.339844 " fill-opacity="1" fill-rule="nonzero"/><g clip-path="url(#9cd64d25ef)"><path fill="#ffffff" d="M 158.417969 59.132812 L 195.144531 59.132812 C 195.964844 59.121094 196.777344 59.03125 197.582031 58.859375 C 198.382812 58.6875 199.164062 58.441406 199.917969 58.117188 C 200.671875 57.796875 201.390625 57.402344 202.066406 56.941406 C 202.746094 56.476562 203.371094 55.953125 203.949219 55.367188 C 204.523438 54.785156 205.039062 54.148438 205.492188 53.464844 C 205.945312 52.777344 206.324219 52.054688 206.636719 51.296875 C 206.949219 50.535156 207.183594 49.753906 207.339844 48.949219 C 207.5 48.144531 207.578125 47.328125 207.578125 46.507812 C 207.589844 45.683594 207.523438 44.867188 207.371094 44.054688 C 207.222656 43.246094 206.996094 42.457031 206.6875 41.691406 C 206.382812 40.925781 206.003906 40.199219 205.550781 39.507812 C 205.097656 38.820312 204.582031 38.179688 204.003906 37.59375 C 203.425781 37.003906 202.796875 36.480469 202.113281 36.019531 C 201.429688 35.554688 200.707031 35.164062 199.949219 34.847656 C 199.1875 34.527344 198.402344 34.289062 197.59375 34.125 C 196.785156 33.964844 195.96875 33.882812 195.144531 33.882812 L 158.417969 33.882812 C 157.585938 33.882812 156.765625 33.964844 155.953125 34.125 C 155.140625 34.289062 154.351562 34.527344 153.585938 34.84375 C 152.820312 35.160156 152.089844 35.550781 151.402344 36.011719 C 150.710938 36.472656 150.074219 36.996094 149.488281 37.582031 C 148.902344 38.167969 148.378906 38.804688 147.917969 39.496094 C 147.457031 40.183594 147.070312 40.910156 146.75 41.675781 C 146.433594 42.441406 146.195312 43.230469 146.035156 44.046875 C 145.871094 44.859375 145.789062 45.679688 145.789062 46.507812 C 145.789062 47.335938 145.871094 48.160156 146.035156 48.972656 C 146.195312 49.785156 146.433594 50.574219 146.75 51.339844 C 147.070312 52.105469 147.457031 52.832031 147.917969 53.523438 C 148.378906 54.210938 148.902344 54.851562 149.488281 55.4375 C 150.074219 56.023438 150.710938 56.546875 151.402344 57.007812 C 152.089844 57.464844 152.820312 57.855469 153.585938 58.171875 C 154.351562 58.488281 155.140625 58.730469 155.953125 58.890625 C 156.765625 59.054688 157.585938 59.132812 158.417969 59.132812 Z M 158.417969 59.132812 " fill-opacity="1" fill-rule="nonzero"/></g><g clip-path="url(#671bf83835)"><path fill="#ffffff" d="M 773.238281 111.546875 L 312.21875 111.546875 C 311.773438 111.492188 311.332031 111.460938 310.882812 111.453125 C 310.4375 111.445312 309.992188 111.464844 309.550781 111.503906 C 309.105469 111.542969 308.664062 111.605469 308.226562 111.691406 C 307.789062 111.777344 307.355469 111.886719 306.929688 112.019531 C 306.503906 112.148438 306.085938 112.304688 305.675781 112.480469 C 305.269531 112.65625 304.867188 112.855469 304.480469 113.074219 C 304.089844 113.289062 303.714844 113.53125 303.351562 113.789062 C 302.988281 114.046875 302.640625 114.324219 302.304688 114.617188 C 301.96875 114.914062 301.652344 115.226562 301.351562 115.554688 C 301.050781 115.882812 300.769531 116.226562 300.503906 116.585938 C 300.238281 116.945312 299.992188 117.316406 299.769531 117.703125 C 299.542969 118.085938 299.339844 118.484375 299.15625 118.890625 C 298.972656 119.296875 298.8125 119.710938 298.671875 120.136719 C 298.53125 120.558594 298.417969 120.988281 298.324219 121.425781 C 298.230469 121.859375 298.160156 122.300781 298.109375 122.746094 C 298.0625 123.1875 298.039062 123.632812 298.039062 124.078125 C 298.039062 124.523438 298.0625 124.96875 298.109375 125.414062 C 298.160156 125.855469 298.230469 126.296875 298.324219 126.730469 C 298.417969 127.167969 298.53125 127.597656 298.671875 128.019531 C 298.8125 128.445312 298.972656 128.859375 299.15625 129.265625 C 299.339844 129.671875 299.542969 130.070312 299.769531 130.453125 C 299.992188 130.839844 300.238281 131.210938 300.503906 131.570312 C 300.769531 131.929688 301.050781 132.273438 301.351562 132.601562 C 301.652344 132.929688 301.96875 133.242188 302.304688 133.539062 C 302.640625 133.832031 302.988281 134.109375 303.351562 134.367188 C 303.714844 134.628906 304.089844 134.867188 304.480469 135.085938 C 304.867188 135.304688 305.269531 135.5 305.675781 135.675781 C 306.085938 135.851562 306.503906 136.007812 306.929688 136.140625 C 307.355469 136.269531 307.789062 136.378906 308.226562 136.464844 C 308.664062 136.550781 309.105469 136.613281 309.550781 136.65625 C 309.992188 136.695312 310.4375 136.710938 310.882812 136.703125 C 311.332031 136.695312 311.773438 136.664062 312.21875 136.609375 L 773.238281 136.609375 C 773.679688 136.664062 774.125 136.695312 774.570312 136.703125 C 775.015625 136.710938 775.460938 136.695312 775.90625 136.65625 C 776.347656 136.613281 776.789062 136.550781 777.226562 136.464844 C 777.664062 136.378906 778.097656 136.269531 778.523438 136.140625 C 778.949219 136.007812 779.367188 135.851562 779.777344 135.675781 C 780.1875 135.5 780.585938 135.304688 780.972656 135.085938 C 781.363281 134.867188 781.738281 134.628906 782.101562 134.367188 C 782.464844 134.109375 782.816406 133.832031 783.148438 133.539062 C 783.484375 133.242188 783.800781 132.929688 784.101562 132.601562 C 784.402344 132.273438 784.6875 131.929688 784.949219 131.570312 C 785.214844 131.210938 785.460938 130.839844 785.6875 130.453125 C 785.910156 130.070312 786.113281 129.671875 786.296875 129.265625 C 786.480469 128.859375 786.644531 128.445312 786.78125 128.019531 C 786.921875 127.597656 787.039062 127.167969 787.132812 126.730469 C 787.226562 126.296875 787.296875 125.855469 787.34375 125.414062 C 787.390625 124.96875 787.414062 124.523438 787.414062 124.078125 C 787.414062 123.632812 787.390625 123.1875 787.34375 122.746094 C 787.296875 122.300781 787.226562 121.859375 787.132812 121.425781 C 787.039062 120.988281 786.921875 120.558594 786.78125 120.136719 C 786.644531 119.710938 786.480469 119.296875 786.296875 118.890625 C 786.113281 118.484375 785.910156 118.085938 785.6875 117.703125 C 785.460938 117.316406 785.214844 116.945312 784.949219 116.585938 C 784.6875 116.226562 784.402344 115.882812 784.101562 115.554688 C 783.800781 115.226562 783.484375 114.914062 783.148438 114.617188 C 782.816406 114.324219 782.464844 114.046875 782.101562 113.789062 C 781.738281 113.53125 781.363281 113.289062 780.972656 113.074219 C 780.585938 112.855469 780.1875 112.65625 779.777344 112.480469 C 779.367188 112.304688 778.949219 112.148438 778.523438 112.019531 C 778.097656 111.886719 777.664062 111.777344 777.226562 111.691406 C 776.789062 111.605469 776.347656 111.542969 775.90625 111.503906 C 775.460938 111.464844 775.015625 111.445312 774.570312 111.453125 C 774.125 111.460938 773.679688 111.492188 773.238281 111.546875 Z M 773.238281 111.546875 " fill-opacity="1" fill-rule="nonzero"/></g><g clip-path="url(#3e0a471188)"><path fill="#ffffff" d="M 488.398438 59.132812 L 525.128906 59.132812 C 525.949219 59.121094 526.761719 59.03125 527.5625 58.859375 C 528.367188 58.6875 529.144531 58.441406 529.902344 58.117188 C 530.65625 57.796875 531.371094 57.402344 532.050781 56.941406 C 532.730469 56.476562 533.355469 55.953125 533.933594 55.367188 C 534.507812 54.785156 535.023438 54.148438 535.472656 53.464844 C 535.925781 52.777344 536.308594 52.054688 536.621094 51.296875 C 536.929688 50.535156 537.164062 49.753906 537.324219 48.949219 C 537.484375 48.144531 537.5625 47.328125 537.5625 46.507812 C 537.574219 45.683594 537.507812 44.867188 537.355469 44.054688 C 537.207031 43.246094 536.976562 42.457031 536.671875 41.691406 C 536.363281 40.925781 535.984375 40.199219 535.535156 39.507812 C 535.082031 38.820312 534.566406 38.179688 533.988281 37.59375 C 533.410156 37.003906 532.777344 36.480469 532.097656 36.019531 C 531.414062 35.554688 530.691406 35.164062 529.929688 34.847656 C 529.171875 34.527344 528.386719 34.289062 527.578125 34.125 C 526.769531 33.964844 525.953125 33.882812 525.128906 33.882812 L 488.398438 33.882812 C 487.570312 33.882812 486.75 33.964844 485.9375 34.125 C 485.125 34.289062 484.332031 34.527344 483.566406 34.84375 C 482.800781 35.160156 482.074219 35.550781 481.386719 36.011719 C 480.695312 36.472656 480.058594 36.996094 479.472656 37.582031 C 478.886719 38.167969 478.363281 38.804688 477.902344 39.496094 C 477.441406 40.183594 477.050781 40.910156 476.734375 41.675781 C 476.417969 42.441406 476.179688 43.230469 476.015625 44.046875 C 475.855469 44.859375 475.773438 45.679688 475.773438 46.507812 C 475.773438 47.335938 475.855469 48.160156 476.015625 48.972656 C 476.179688 49.785156 476.417969 50.574219 476.734375 51.339844 C 477.050781 52.105469 477.441406 52.832031 477.902344 53.523438 C 478.363281 54.210938 478.886719 54.851562 479.472656 55.4375 C 480.058594 56.023438 480.695312 56.546875 481.386719 57.007812 C 482.074219 57.464844 482.800781 57.855469 483.566406 58.171875 C 484.332031 58.488281 485.125 58.730469 485.9375 58.890625 C 486.75 59.054688 487.570312 59.132812 488.398438 59.132812 Z M 488.398438 59.132812 " fill-opacity="1" fill-rule="nonzero"/></g><g clip-path="url(#1091a4488f)"><path fill="#ffffff" d="M 598.394531 59.132812 L 773.238281 59.132812 C 774.066406 59.132812 774.886719 59.054688 775.699219 58.890625 C 776.511719 58.730469 777.304688 58.488281 778.070312 58.171875 C 778.835938 57.855469 779.5625 57.464844 780.25 57.007812 C 780.941406 56.546875 781.578125 56.023438 782.164062 55.4375 C 782.75 54.851562 783.273438 54.210938 783.734375 53.523438 C 784.195312 52.832031 784.585938 52.105469 784.902344 51.339844 C 785.21875 50.574219 785.457031 49.785156 785.621094 48.972656 C 785.78125 48.160156 785.863281 47.335938 785.863281 46.507812 C 785.863281 45.679688 785.78125 44.859375 785.621094 44.046875 C 785.457031 43.230469 785.21875 42.441406 784.902344 41.675781 C 784.585938 40.910156 784.195312 40.183594 783.734375 39.496094 C 783.273438 38.804688 782.75 38.167969 782.164062 37.582031 C 781.578125 36.996094 780.941406 36.472656 780.25 36.011719 C 779.5625 35.550781 778.835938 35.160156 778.070312 34.84375 C 777.304688 34.527344 776.511719 34.289062 775.699219 34.125 C 774.886719 33.964844 774.066406 33.882812 773.238281 33.882812 L 598.394531 33.882812 C 597.566406 33.882812 596.742188 33.964844 595.929688 34.125 C 595.117188 34.289062 594.328125 34.527344 593.5625 34.84375 C 592.796875 35.160156 592.070312 35.550781 591.378906 36.011719 C 590.691406 36.472656 590.050781 36.996094 589.464844 37.582031 C 588.878906 38.167969 588.355469 38.804688 587.894531 39.496094 C 587.4375 40.183594 587.046875 40.910156 586.730469 41.675781 C 586.414062 42.441406 586.171875 43.230469 586.011719 44.046875 C 585.847656 44.859375 585.769531 45.679688 585.769531 46.507812 C 585.769531 47.335938 585.847656 48.160156 586.011719 48.972656 C 586.171875 49.785156 586.410156 50.574219 586.730469 51.339844 C 587.046875 52.105469 587.4375 52.832031 587.894531 53.523438 C 588.355469 54.210938 588.878906 54.851562 589.464844 55.4375 C 590.050781 56.023438 590.691406 56.546875 591.378906 57.007812 C 592.070312 57.464844 592.796875 57.855469 593.5625 58.171875 C 594.328125 58.488281 595.117188 58.730469 595.929688 58.890625 C 596.742188 59.054688 597.566406 59.132812 598.394531 59.132812 Z M 598.394531 59.132812 " fill-opacity="1" fill-rule="nonzero"/></g></svg>