<svg xmlns="http://www.w3.org/2000/svg" xmlns:xlink="http://www.w3.org/1999/xlink" width="1080" zoomAndPan="magnify" viewBox="0 0 810 809.999993" height="1080" preserveAspectRatio="xMidYMid meet" version="1.0"><defs><clipPath id="d4dea49a3d"><path d="M 40.5 25.3125 L 769.5 25.3125 L 769.5 785 L 40.5 785 Z M 40.5 25.3125 " clip-rule="nonzero"/></clipPath></defs><path fill="#ffffff" d="M 256.222656 382.683594 L 338.050781 382.683594 C 346.269531 382.683594 352.929688 376.023438 352.929688 367.804688 C 352.929688 359.589844 346.269531 352.929688 338.050781 352.929688 L 256.222656 352.929688 C 248.007812 352.929688 241.347656 359.589844 241.347656 367.804688 C 241.347656 376.023438 248.007812 382.683594 256.222656 382.683594 Z M 256.222656 382.683594 " fill-opacity="1" fill-rule="nonzero"/><path fill="#ffffff" d="M 211.59375 367.804688 C 211.59375 359.589844 204.929688 352.929688 196.714844 352.929688 L 114.886719 352.929688 C 106.671875 352.929688 100.011719 359.589844 100.011719 367.804688 C 100.011719 376.023438 106.671875 382.683594 114.886719 382.683594 L 196.714844 382.683594 C 204.929688 382.683594 211.59375 376.023438 211.59375 367.804688 Z M 211.59375 367.804688 " fill-opacity="1" fill-rule="nonzero"/><g clip-path="url(#d4dea49a3d)"><path fill="#ffffff" d="M 769.5 174.398438 C 769.5 92.363281 702.761719 25.621094 620.722656 25.621094 C 612.398438 25.621094 262.457031 25.621094 248.785156 25.621094 C 215.972656 25.621094 189.277344 52.320312 189.277344 85.132812 L 189.277344 233.90625 L 55.378906 233.90625 C 47.160156 233.90625 40.5 240.570312 40.5 248.785156 L 40.5 427.316406 C 40.5 435.53125 47.160156 442.195312 55.378906 442.195312 L 189.277344 442.195312 L 189.277344 724.867188 C 189.277344 757.679688 215.972656 784.378906 248.785156 784.378906 L 590.96875 784.378906 C 623.785156 784.378906 650.480469 757.679688 650.480469 724.867188 L 650.480469 320.179688 C 718.304688 306.359375 769.5 246.246094 769.5 174.398438 Z M 248.785156 55.378906 L 531.558594 55.378906 C 502.96875 76.851562 482.332031 108.367188 474.941406 144.644531 L 219.03125 144.644531 L 219.03125 85.132812 C 219.03125 68.726562 232.378906 55.378906 248.785156 55.378906 Z M 382.683594 263.664062 L 382.683594 293.417969 L 70.253906 293.417969 L 70.253906 263.664062 Z M 70.253906 323.171875 L 382.683594 323.171875 L 382.683594 412.4375 L 70.253906 412.4375 Z M 590.96875 754.621094 L 248.785156 754.621094 C 232.378906 754.621094 219.03125 741.273438 219.03125 724.867188 L 219.03125 665.355469 L 620.722656 665.355469 L 620.722656 724.867188 C 620.722656 741.273438 607.375 754.621094 590.96875 754.621094 Z M 620.722656 635.601562 L 219.03125 635.601562 L 219.03125 442.195312 L 397.5625 442.195312 C 405.777344 442.195312 412.4375 435.53125 412.4375 427.316406 L 412.4375 248.785156 C 412.4375 240.570312 405.777344 233.90625 397.5625 233.90625 L 219.03125 233.90625 L 219.03125 174.398438 L 471.949219 174.398438 C 471.949219 256.433594 538.6875 323.171875 620.722656 323.171875 Z M 620.722656 293.417969 C 555.097656 293.417969 501.703125 240.027344 501.703125 174.398438 C 501.703125 108.769531 555.097656 55.378906 620.722656 55.378906 C 686.351562 55.378906 739.746094 108.769531 739.746094 174.398438 C 739.746094 240.027344 686.351562 293.417969 620.722656 293.417969 Z M 620.722656 293.417969 " fill-opacity="1" fill-rule="nonzero"/></g><path fill="#ffffff" d="M 665.996094 124.824219 L 598.40625 192.410156 L 575.453125 169.457031 C 569.640625 163.648438 560.226562 163.648438 554.414062 169.457031 C 548.601562 175.265625 548.601562 184.6875 554.414062 190.496094 L 587.886719 223.972656 C 593.699219 229.78125 603.117188 229.78125 608.929688 223.972656 L 687.035156 145.863281 C 692.84375 140.054688 692.84375 130.632812 687.035156 124.824219 C 681.222656 119.015625 671.804688 119.015625 665.996094 124.824219 Z M 665.996094 124.824219 " fill-opacity="1" fill-rule="nonzero"/><path fill="#ffffff" d="M 457.070312 695.113281 L 382.683594 695.113281 C 374.464844 695.113281 367.804688 701.773438 367.804688 709.988281 C 367.804688 718.207031 374.464844 724.867188 382.683594 724.867188 L 457.070312 724.867188 C 465.285156 724.867188 471.949219 718.207031 471.949219 709.988281 C 471.949219 701.773438 465.285156 695.113281 457.070312 695.113281 Z M 457.070312 695.113281 " fill-opacity="1" fill-rule="nonzero"/><path fill="#ffffff" d="M 367.804688 114.886719 L 442.195312 114.886719 C 450.410156 114.886719 457.070312 108.226562 457.070312 100.011719 C 457.070312 91.792969 450.410156 85.132812 442.195312 85.132812 L 367.804688 85.132812 C 359.589844 85.132812 352.929688 91.792969 352.929688 100.011719 C 352.929688 108.226562 359.589844 114.886719 367.804688 114.886719 Z M 367.804688 114.886719 " fill-opacity="1" fill-rule="nonzero"/></svg>