<svg xmlns="http://www.w3.org/2000/svg" xmlns:xlink="http://www.w3.org/1999/xlink" width="1080" zoomAndPan="magnify" viewBox="0 0 810 809.999993" height="1080" preserveAspectRatio="xMidYMid meet" version="1.0"><defs><clipPath id="490a297f90"><path d="M 15 32.785156 L 795 32.785156 L 795 604 L 15 604 Z M 15 32.785156 " clip-rule="nonzero"/></clipPath></defs><g clip-path="url(#490a297f90)"><path fill="#ffffff" d="M 794.75 473.621094 L 794.75 84.148438 C 794.75 55.652344 771.566406 32.476562 743.078125 32.476562 L 66.792969 32.476562 C 38.304688 32.476562 15.121094 55.652344 15.121094 84.148438 L 15.121094 552.136719 C 15.121094 580.632812 38.304688 603.808594 66.792969 603.808594 L 743.078125 603.808594 C 771.566406 603.808594 794.75 580.632812 794.75 552.136719 L 794.75 474.859375 C 794.761719 474.640625 794.875 474.460938 794.875 474.238281 C 794.875 474.019531 794.761719 473.835938 794.75 473.621094 Z M 417.980469 544.84375 L 392.09375 544.84375 C 385.367188 544.84375 379.910156 539.394531 379.910156 532.660156 C 379.910156 525.925781 385.367188 520.476562 392.09375 520.476562 L 417.980469 520.476562 C 424.707031 520.476562 430.164062 525.925781 430.164062 532.660156 C 430.164062 539.394531 424.707031 544.84375 417.980469 544.84375 Z M 770.382812 462.054688 L 39.488281 462.054688 L 39.488281 84.148438 C 39.488281 69.097656 51.738281 56.84375 66.792969 56.84375 L 743.078125 56.84375 C 758.132812 56.84375 770.382812 69.097656 770.382812 84.148438 Z M 770.382812 462.054688 " fill-opacity="1" fill-rule="nonzero"/></g><path fill="#ffffff" d="M 600.8125 751.929688 L 564.597656 751.929688 C 521.039062 718.601562 492.339844 667.949219 480.300781 628.140625 L 329.46875 628.140625 C 317.550781 667.949219 288.851562 718.601562 245.292969 751.929688 L 209.183594 751.929688 C 202.457031 751.929688 197 757.378906 197 764.113281 C 197 770.847656 202.457031 776.296875 209.183594 776.296875 L 600.8125 776.296875 C 607.539062 776.296875 612.996094 770.847656 612.996094 764.113281 C 612.996094 757.378906 607.539062 751.929688 600.8125 751.929688 Z M 600.8125 751.929688 " fill-opacity="1" fill-rule="nonzero"/><path fill="#ffffff" d="M 620.128906 265.046875 L 667.65625 238.964844 C 671.902344 236.632812 674.359375 232.019531 673.929688 227.199219 C 673.496094 222.378906 670.253906 218.265625 665.667969 216.730469 L 470.46875 151.3125 C 466.105469 149.851562 461.277344 150.96875 458.003906 154.226562 C 454.738281 157.476562 453.578125 162.296875 455.023438 166.671875 L 519.238281 361.933594 C 520.753906 366.550781 524.867188 369.820312 529.703125 370.261719 C 534.539062 370.726562 539.179688 368.226562 541.503906 363.957031 L 566.296875 318.515625 L 638.707031 389.941406 C 641.082031 392.285156 644.167969 393.453125 647.261719 393.453125 C 650.378906 393.453125 653.496094 392.261719 655.875 389.882812 L 691.796875 353.960938 C 696.554688 349.203125 696.554688 341.492188 691.796875 336.734375 Z M 620.128906 265.046875 " fill-opacity="1" fill-rule="nonzero"/><path fill="#ffffff" d="M 352.859375 113.597656 L 105.878906 113.597656 C 99.152344 113.597656 93.695312 119.046875 93.695312 125.78125 L 93.695312 215.765625 C 93.695312 222.5 99.152344 227.949219 105.878906 227.949219 L 352.859375 227.949219 C 359.589844 227.949219 365.042969 222.5 365.042969 215.765625 L 365.042969 125.78125 C 365.042969 119.046875 359.589844 113.597656 352.859375 113.597656 Z M 352.859375 113.597656 " fill-opacity="1" fill-rule="nonzero"/><path fill="#ffffff" d="M 346.769531 263.238281 L 103.09375 263.238281 C 96.367188 263.238281 90.910156 268.6875 90.910156 275.421875 C 90.910156 282.15625 96.367188 287.605469 103.09375 287.605469 L 346.769531 287.605469 C 353.496094 287.605469 358.953125 282.15625 358.953125 275.421875 C 358.953125 268.6875 353.496094 263.238281 346.769531 263.238281 Z M 346.769531 263.238281 " fill-opacity="1" fill-rule="nonzero"/><path fill="#ffffff" d="M 346.769531 324.15625 L 103.09375 324.15625 C 96.367188 324.15625 90.910156 329.605469 90.910156 336.339844 C 90.910156 343.074219 96.367188 348.523438 103.09375 348.523438 L 346.769531 348.523438 C 353.496094 348.523438 358.953125 343.074219 358.953125 336.339844 C 358.953125 329.605469 353.496094 324.15625 346.769531 324.15625 Z M 346.769531 324.15625 " fill-opacity="1" fill-rule="nonzero"/><path fill="#ffffff" d="M 346.769531 385.074219 L 103.09375 385.074219 C 96.367188 385.074219 90.910156 390.523438 90.910156 397.257812 C 90.910156 403.992188 96.367188 409.441406 103.09375 409.441406 L 346.769531 409.441406 C 353.496094 409.441406 358.953125 403.992188 358.953125 397.257812 C 358.953125 390.523438 353.496094 385.074219 346.769531 385.074219 Z M 346.769531 385.074219 " fill-opacity="1" fill-rule="nonzero"/></svg>